<?xml version="1.0" encoding="utf-8" standalone="no"?>
<!DOCTYPE svg PUBLIC "-//W3C//DTD SVG 1.1//EN"
  "http://www.w3.org/Graphics/SVG/1.1/DTD/svg11.dtd">
<svg xmlns:xlink="http://www.w3.org/1999/xlink" width="856.51669pt" height="207.754375pt" viewBox="0 0 856.51669 207.754375" xmlns="http://www.w3.org/2000/svg" version="1.1">
 <metadata>
  <rdf:RDF xmlns:dc="http://purl.org/dc/elements/1.1/" xmlns:cc="http://creativecommons.org/ns#" xmlns:rdf="http://www.w3.org/1999/02/22-rdf-syntax-ns#">
   <cc:Work>
    <dc:type rdf:resource="http://purl.org/dc/dcmitype/StillImage"/>
    <dc:date>2025-02-03T12:06:51.842287</dc:date>
    <dc:format>image/svg+xml</dc:format>
    <dc:creator>
     <cc:Agent>
      <dc:title>Matplotlib v3.10.0, https://matplotlib.org/</dc:title>
     </cc:Agent>
    </dc:creator>
   </cc:Work>
  </rdf:RDF>
 </metadata>
 <defs>
  <style type="text/css">*{stroke-linejoin: round; stroke-linecap: butt}</style>
 </defs>
 <g id="figure_1">
  <g id="patch_1">
   <path d="M -0 207.754375 
L 856.51669 207.754375 
L 856.51669 0 
L -0 0 
z
" style="fill: #ffffff"/>
  </g>
  <g id="axes_1">
   <g id="patch_2">
    <path d="M 45.478125 170.198125 
L 849.31669 170.198125 
L 849.31669 22.318125 
L 45.478125 22.318125 
z
" style="fill: #ffffff"/>
   </g>
   <g id="patch_3">
    <path d="M 82.016242 50070.674098 
L 89.323865 50070.674098 
L 89.323865 29.039943 
L 82.016242 29.039943 
z
" clip-path="url(#pd344d65f03)" style="fill: #1f77b4"/>
   </g>
   <g id="patch_4">
    <path d="M 89.323865 50070.674098 
L 96.631488 50070.674098 
L 96.631488 80.969103 
L 89.323865 80.969103 
z
" clip-path="url(#pd344d65f03)" style="fill: #1f77b4"/>
   </g>
   <g id="patch_5">
    <path d="M 96.631488 50070.674098 
L 103.939112 50070.674098 
L 103.939112 100.829174 
L 96.631488 100.829174 
z
" clip-path="url(#pd344d65f03)" style="fill: #1f77b4"/>
   </g>
   <g id="patch_6">
    <path d="M 103.939112 50070.674098 
L 111.246735 50070.674098 
L 111.246735 139.664522 
L 103.939112 139.664522 
z
" clip-path="url(#pd344d65f03)" style="fill: #1f77b4"/>
   </g>
   <g id="patch_7">
    <path d="M 111.246735 50070.674098 
L 118.554358 50070.674098 
L 118.554358 139.664522 
L 111.246735 139.664522 
z
" clip-path="url(#pd344d65f03)" style="fill: #1f77b4"/>
   </g>
   <g id="patch_8">
    <path d="M 118.554358 50070.674098 
L 125.861982 50070.674098 
L 125.861982 148.452743 
L 118.554358 148.452743 
z
" clip-path="url(#pd344d65f03)" style="fill: #1f77b4"/>
   </g>
   <g id="patch_9">
    <path d="M 125.861982 50070.674098 
L 133.169605 50070.674098 
L 133.169605 139.664522 
L 125.861982 139.664522 
z
" clip-path="url(#pd344d65f03)" style="fill: #1f77b4"/>
   </g>
   <g id="patch_10">
    <path d="M 133.169605 50070.674098 
L 140.477228 50070.674098 
L 140.477228 121.299832 
L 133.169605 121.299832 
z
" clip-path="url(#pd344d65f03)" style="fill: #1f77b4"/>
   </g>
   <g id="patch_11">
    <path d="M 140.477228 50070.674098 
L 147.784851 50070.674098 
L 147.784851 163.476307 
L 140.477228 163.476307 
z
" clip-path="url(#pd344d65f03)" style="fill: #1f77b4"/>
   </g>
   <g id="patch_12">
    <path d="M 147.784851 50070.674098 
L 155.092475 50070.674098 
L 155.092475 139.664522 
L 147.784851 139.664522 
z
" clip-path="url(#pd344d65f03)" style="fill: #1f77b4"/>
   </g>
   <g id="patch_13">
    <path d="M 155.092475 50070.674098 
L 162.400098 50070.674098 
L 162.400098 128.592673 
L 155.092475 128.592673 
z
" clip-path="url(#pd344d65f03)" style="fill: #1f77b4"/>
   </g>
   <g id="patch_14">
    <path d="M 162.400098 50070.674098 
L 169.707721 50070.674098 
L 169.707721 103.382053 
L 162.400098 103.382053 
z
" clip-path="url(#pd344d65f03)" style="fill: #1f77b4"/>
   </g>
   <g id="patch_15">
    <path d="M 169.707721 50070.674098 
L 177.015345 50070.674098 
L 177.015345 50070.674098 
L 169.707721 50070.674098 
z
" clip-path="url(#pd344d65f03)" style="fill: #1f77b4"/>
   </g>
   <g id="patch_16">
    <path d="M 177.015345 50070.674098 
L 184.322968 50070.674098 
L 184.322968 50070.674098 
L 177.015345 50070.674098 
z
" clip-path="url(#pd344d65f03)" style="fill: #1f77b4"/>
   </g>
   <g id="patch_17">
    <path d="M 184.322968 50070.674098 
L 191.630591 50070.674098 
L 191.630591 104.780888 
L 184.322968 104.780888 
z
" clip-path="url(#pd344d65f03)" style="fill: #1f77b4"/>
   </g>
   <g id="patch_18">
    <path d="M 191.630591 50070.674098 
L 198.938215 50070.674098 
L 198.938215 50070.674098 
L 191.630591 50070.674098 
z
" clip-path="url(#pd344d65f03)" style="fill: #1f77b4"/>
   </g>
   <g id="patch_19">
    <path d="M 198.938215 50070.674098 
L 206.245838 50070.674098 
L 206.245838 50070.674098 
L 198.938215 50070.674098 
z
" clip-path="url(#pd344d65f03)" style="fill: #1f77b4"/>
   </g>
   <g id="patch_20">
    <path d="M 206.245838 50070.674098 
L 213.553461 50070.674098 
L 213.553461 50070.674098 
L 206.245838 50070.674098 
z
" clip-path="url(#pd344d65f03)" style="fill: #1f77b4"/>
   </g>
   <g id="patch_21">
    <path d="M 213.553461 50070.674098 
L 220.861085 50070.674098 
L 220.861085 50070.674098 
L 213.553461 50070.674098 
z
" clip-path="url(#pd344d65f03)" style="fill: #1f77b4"/>
   </g>
   <g id="patch_22">
    <path d="M 220.861085 50070.674098 
L 228.168708 50070.674098 
L 228.168708 50070.674098 
L 220.861085 50070.674098 
z
" clip-path="url(#pd344d65f03)" style="fill: #1f77b4"/>
   </g>
   <g id="patch_23">
    <path d="M 228.168708 50070.674098 
L 235.476331 50070.674098 
L 235.476331 50070.674098 
L 228.168708 50070.674098 
z
" clip-path="url(#pd344d65f03)" style="fill: #1f77b4"/>
   </g>
   <g id="patch_24">
    <path d="M 235.476331 50070.674098 
L 242.783955 50070.674098 
L 242.783955 50070.674098 
L 235.476331 50070.674098 
z
" clip-path="url(#pd344d65f03)" style="fill: #1f77b4"/>
   </g>
   <g id="patch_25">
    <path d="M 242.783955 50070.674098 
L 250.091578 50070.674098 
L 250.091578 50070.674098 
L 242.783955 50070.674098 
z
" clip-path="url(#pd344d65f03)" style="fill: #1f77b4"/>
   </g>
   <g id="patch_26">
    <path d="M 250.091578 50070.674098 
L 257.399201 50070.674098 
L 257.399201 50070.674098 
L 250.091578 50070.674098 
z
" clip-path="url(#pd344d65f03)" style="fill: #1f77b4"/>
   </g>
   <g id="patch_27">
    <path d="M 257.399201 50070.674098 
L 264.706825 50070.674098 
L 264.706825 163.476307 
L 257.399201 163.476307 
z
" clip-path="url(#pd344d65f03)" style="fill: #1f77b4"/>
   </g>
   <g id="patch_28">
    <path d="M 264.706825 50070.674098 
L 272.014448 50070.674098 
L 272.014448 50070.674098 
L 264.706825 50070.674098 
z
" clip-path="url(#pd344d65f03)" style="fill: #1f77b4"/>
   </g>
   <g id="patch_29">
    <path d="M 272.014448 50070.674098 
L 279.322071 50070.674098 
L 279.322071 50070.674098 
L 272.014448 50070.674098 
z
" clip-path="url(#pd344d65f03)" style="fill: #1f77b4"/>
   </g>
   <g id="patch_30">
    <path d="M 279.322071 50070.674098 
L 286.629695 50070.674098 
L 286.629695 50070.674098 
L 279.322071 50070.674098 
z
" clip-path="url(#pd344d65f03)" style="fill: #1f77b4"/>
   </g>
   <g id="patch_31">
    <path d="M 286.629695 50070.674098 
L 293.937318 50070.674098 
L 293.937318 50070.674098 
L 286.629695 50070.674098 
z
" clip-path="url(#pd344d65f03)" style="fill: #1f77b4"/>
   </g>
   <g id="patch_32">
    <path d="M 293.937318 50070.674098 
L 301.244941 50070.674098 
L 301.244941 50070.674098 
L 293.937318 50070.674098 
z
" clip-path="url(#pd344d65f03)" style="fill: #1f77b4"/>
   </g>
   <g id="patch_33">
    <path d="M 301.244941 50070.674098 
L 308.552565 50070.674098 
L 308.552565 50070.674098 
L 301.244941 50070.674098 
z
" clip-path="url(#pd344d65f03)" style="fill: #1f77b4"/>
   </g>
   <g id="patch_34">
    <path d="M 308.552565 50070.674098 
L 315.860188 50070.674098 
L 315.860188 50070.674098 
L 308.552565 50070.674098 
z
" clip-path="url(#pd344d65f03)" style="fill: #1f77b4"/>
   </g>
   <g id="patch_35">
    <path d="M 315.860188 50070.674098 
L 323.167811 50070.674098 
L 323.167811 50070.674098 
L 315.860188 50070.674098 
z
" clip-path="url(#pd344d65f03)" style="fill: #1f77b4"/>
   </g>
   <g id="patch_36">
    <path d="M 323.167811 50070.674098 
L 330.475434 50070.674098 
L 330.475434 50070.674098 
L 323.167811 50070.674098 
z
" clip-path="url(#pd344d65f03)" style="fill: #1f77b4"/>
   </g>
   <g id="patch_37">
    <path d="M 330.475434 50070.674098 
L 337.783058 50070.674098 
L 337.783058 148.452743 
L 330.475434 148.452743 
z
" clip-path="url(#pd344d65f03)" style="fill: #1f77b4"/>
   </g>
   <g id="patch_38">
    <path d="M 337.783058 50070.674098 
L 345.090681 50070.674098 
L 345.090681 50070.674098 
L 337.783058 50070.674098 
z
" clip-path="url(#pd344d65f03)" style="fill: #1f77b4"/>
   </g>
   <g id="patch_39">
    <path d="M 345.090681 50070.674098 
L 352.398304 50070.674098 
L 352.398304 50070.674098 
L 345.090681 50070.674098 
z
" clip-path="url(#pd344d65f03)" style="fill: #1f77b4"/>
   </g>
   <g id="patch_40">
    <path d="M 352.398304 50070.674098 
L 359.705928 50070.674098 
L 359.705928 50070.674098 
L 352.398304 50070.674098 
z
" clip-path="url(#pd344d65f03)" style="fill: #1f77b4"/>
   </g>
   <g id="patch_41">
    <path d="M 359.705928 50070.674098 
L 367.013551 50070.674098 
L 367.013551 50070.674098 
L 359.705928 50070.674098 
z
" clip-path="url(#pd344d65f03)" style="fill: #1f77b4"/>
   </g>
   <g id="patch_42">
    <path d="M 367.013551 50070.674098 
L 374.321174 50070.674098 
L 374.321174 50070.674098 
L 367.013551 50070.674098 
z
" clip-path="url(#pd344d65f03)" style="fill: #1f77b4"/>
   </g>
   <g id="patch_43">
    <path d="M 374.321174 50070.674098 
L 381.628798 50070.674098 
L 381.628798 50070.674098 
L 374.321174 50070.674098 
z
" clip-path="url(#pd344d65f03)" style="fill: #1f77b4"/>
   </g>
   <g id="patch_44">
    <path d="M 381.628798 50070.674098 
L 388.936421 50070.674098 
L 388.936421 50070.674098 
L 381.628798 50070.674098 
z
" clip-path="url(#pd344d65f03)" style="fill: #1f77b4"/>
   </g>
   <g id="patch_45">
    <path d="M 388.936421 50070.674098 
L 396.244044 50070.674098 
L 396.244044 50070.674098 
L 388.936421 50070.674098 
z
" clip-path="url(#pd344d65f03)" style="fill: #1f77b4"/>
   </g>
   <g id="patch_46">
    <path d="M 396.244044 50070.674098 
L 403.551668 50070.674098 
L 403.551668 163.476307 
L 396.244044 163.476307 
z
" clip-path="url(#pd344d65f03)" style="fill: #1f77b4"/>
   </g>
   <g id="patch_47">
    <path d="M 403.551668 50070.674098 
L 410.859291 50070.674098 
L 410.859291 50070.674098 
L 403.551668 50070.674098 
z
" clip-path="url(#pd344d65f03)" style="fill: #1f77b4"/>
   </g>
   <g id="patch_48">
    <path d="M 410.859291 50070.674098 
L 418.166914 50070.674098 
L 418.166914 50070.674098 
L 410.859291 50070.674098 
z
" clip-path="url(#pd344d65f03)" style="fill: #1f77b4"/>
   </g>
   <g id="patch_49">
    <path d="M 418.166914 50070.674098 
L 425.474538 50070.674098 
L 425.474538 50070.674098 
L 418.166914 50070.674098 
z
" clip-path="url(#pd344d65f03)" style="fill: #1f77b4"/>
   </g>
   <g id="patch_50">
    <path d="M 425.474538 50070.674098 
L 432.782161 50070.674098 
L 432.782161 50070.674098 
L 425.474538 50070.674098 
z
" clip-path="url(#pd344d65f03)" style="fill: #1f77b4"/>
   </g>
   <g id="patch_51">
    <path d="M 432.782161 50070.674098 
L 440.089784 50070.674098 
L 440.089784 50070.674098 
L 432.782161 50070.674098 
z
" clip-path="url(#pd344d65f03)" style="fill: #1f77b4"/>
   </g>
   <g id="patch_52">
    <path d="M 440.089784 50070.674098 
L 447.397408 50070.674098 
L 447.397408 50070.674098 
L 440.089784 50070.674098 
z
" clip-path="url(#pd344d65f03)" style="fill: #1f77b4"/>
   </g>
   <g id="patch_53">
    <path d="M 447.397408 50070.674098 
L 454.705031 50070.674098 
L 454.705031 50070.674098 
L 447.397408 50070.674098 
z
" clip-path="url(#pd344d65f03)" style="fill: #1f77b4"/>
   </g>
   <g id="patch_54">
    <path d="M 454.705031 50070.674098 
L 462.012654 50070.674098 
L 462.012654 50070.674098 
L 454.705031 50070.674098 
z
" clip-path="url(#pd344d65f03)" style="fill: #1f77b4"/>
   </g>
   <g id="patch_55">
    <path d="M 462.012654 50070.674098 
L 469.320278 50070.674098 
L 469.320278 50070.674098 
L 462.012654 50070.674098 
z
" clip-path="url(#pd344d65f03)" style="fill: #1f77b4"/>
   </g>
   <g id="patch_56">
    <path d="M 469.320278 50070.674098 
L 476.627901 50070.674098 
L 476.627901 50070.674098 
L 469.320278 50070.674098 
z
" clip-path="url(#pd344d65f03)" style="fill: #1f77b4"/>
   </g>
   <g id="patch_57">
    <path d="M 476.627901 50070.674098 
L 483.935524 50070.674098 
L 483.935524 50070.674098 
L 476.627901 50070.674098 
z
" clip-path="url(#pd344d65f03)" style="fill: #1f77b4"/>
   </g>
   <g id="patch_58">
    <path d="M 483.935524 50070.674098 
L 491.243148 50070.674098 
L 491.243148 50070.674098 
L 483.935524 50070.674098 
z
" clip-path="url(#pd344d65f03)" style="fill: #1f77b4"/>
   </g>
   <g id="patch_59">
    <path d="M 491.243148 50070.674098 
L 498.550771 50070.674098 
L 498.550771 50070.674098 
L 491.243148 50070.674098 
z
" clip-path="url(#pd344d65f03)" style="fill: #1f77b4"/>
   </g>
   <g id="patch_60">
    <path d="M 498.550771 50070.674098 
L 505.858394 50070.674098 
L 505.858394 50070.674098 
L 498.550771 50070.674098 
z
" clip-path="url(#pd344d65f03)" style="fill: #1f77b4"/>
   </g>
   <g id="patch_61">
    <path d="M 505.858394 50070.674098 
L 513.166018 50070.674098 
L 513.166018 50070.674098 
L 505.858394 50070.674098 
z
" clip-path="url(#pd344d65f03)" style="fill: #1f77b4"/>
   </g>
   <g id="patch_62">
    <path d="M 513.166018 50070.674098 
L 520.473641 50070.674098 
L 520.473641 50070.674098 
L 513.166018 50070.674098 
z
" clip-path="url(#pd344d65f03)" style="fill: #1f77b4"/>
   </g>
   <g id="patch_63">
    <path d="M 520.473641 50070.674098 
L 527.781264 50070.674098 
L 527.781264 50070.674098 
L 520.473641 50070.674098 
z
" clip-path="url(#pd344d65f03)" style="fill: #1f77b4"/>
   </g>
   <g id="patch_64">
    <path d="M 527.781264 50070.674098 
L 535.088887 50070.674098 
L 535.088887 50070.674098 
L 527.781264 50070.674098 
z
" clip-path="url(#pd344d65f03)" style="fill: #1f77b4"/>
   </g>
   <g id="patch_65">
    <path d="M 535.088887 50070.674098 
L 542.396511 50070.674098 
L 542.396511 50070.674098 
L 535.088887 50070.674098 
z
" clip-path="url(#pd344d65f03)" style="fill: #1f77b4"/>
   </g>
   <g id="patch_66">
    <path d="M 542.396511 50070.674098 
L 549.704134 50070.674098 
L 549.704134 50070.674098 
L 542.396511 50070.674098 
z
" clip-path="url(#pd344d65f03)" style="fill: #1f77b4"/>
   </g>
   <g id="patch_67">
    <path d="M 549.704134 50070.674098 
L 557.011757 50070.674098 
L 557.011757 50070.674098 
L 549.704134 50070.674098 
z
" clip-path="url(#pd344d65f03)" style="fill: #1f77b4"/>
   </g>
   <g id="patch_68">
    <path d="M 557.011757 50070.674098 
L 564.319381 50070.674098 
L 564.319381 50070.674098 
L 557.011757 50070.674098 
z
" clip-path="url(#pd344d65f03)" style="fill: #1f77b4"/>
   </g>
   <g id="patch_69">
    <path d="M 564.319381 50070.674098 
L 571.627004 50070.674098 
L 571.627004 50070.674098 
L 564.319381 50070.674098 
z
" clip-path="url(#pd344d65f03)" style="fill: #1f77b4"/>
   </g>
   <g id="patch_70">
    <path d="M 571.627004 50070.674098 
L 578.934627 50070.674098 
L 578.934627 50070.674098 
L 571.627004 50070.674098 
z
" clip-path="url(#pd344d65f03)" style="fill: #1f77b4"/>
   </g>
   <g id="patch_71">
    <path d="M 578.934627 50070.674098 
L 586.242251 50070.674098 
L 586.242251 50070.674098 
L 578.934627 50070.674098 
z
" clip-path="url(#pd344d65f03)" style="fill: #1f77b4"/>
   </g>
   <g id="patch_72">
    <path d="M 586.242251 50070.674098 
L 593.549874 50070.674098 
L 593.549874 50070.674098 
L 586.242251 50070.674098 
z
" clip-path="url(#pd344d65f03)" style="fill: #1f77b4"/>
   </g>
   <g id="patch_73">
    <path d="M 593.549874 50070.674098 
L 600.857497 50070.674098 
L 600.857497 50070.674098 
L 593.549874 50070.674098 
z
" clip-path="url(#pd344d65f03)" style="fill: #1f77b4"/>
   </g>
   <g id="patch_74">
    <path d="M 600.857497 50070.674098 
L 608.165121 50070.674098 
L 608.165121 50070.674098 
L 600.857497 50070.674098 
z
" clip-path="url(#pd344d65f03)" style="fill: #1f77b4"/>
   </g>
   <g id="patch_75">
    <path d="M 608.165121 50070.674098 
L 615.472744 50070.674098 
L 615.472744 50070.674098 
L 608.165121 50070.674098 
z
" clip-path="url(#pd344d65f03)" style="fill: #1f77b4"/>
   </g>
   <g id="patch_76">
    <path d="M 615.472744 50070.674098 
L 622.780367 50070.674098 
L 622.780367 50070.674098 
L 615.472744 50070.674098 
z
" clip-path="url(#pd344d65f03)" style="fill: #1f77b4"/>
   </g>
   <g id="patch_77">
    <path d="M 622.780367 50070.674098 
L 630.087991 50070.674098 
L 630.087991 50070.674098 
L 622.780367 50070.674098 
z
" clip-path="url(#pd344d65f03)" style="fill: #1f77b4"/>
   </g>
   <g id="patch_78">
    <path d="M 630.087991 50070.674098 
L 637.395614 50070.674098 
L 637.395614 50070.674098 
L 630.087991 50070.674098 
z
" clip-path="url(#pd344d65f03)" style="fill: #1f77b4"/>
   </g>
   <g id="patch_79">
    <path d="M 637.395614 50070.674098 
L 644.703237 50070.674098 
L 644.703237 50070.674098 
L 637.395614 50070.674098 
z
" clip-path="url(#pd344d65f03)" style="fill: #1f77b4"/>
   </g>
   <g id="patch_80">
    <path d="M 644.703237 50070.674098 
L 652.010861 50070.674098 
L 652.010861 50070.674098 
L 644.703237 50070.674098 
z
" clip-path="url(#pd344d65f03)" style="fill: #1f77b4"/>
   </g>
   <g id="patch_81">
    <path d="M 652.010861 50070.674098 
L 659.318484 50070.674098 
L 659.318484 50070.674098 
L 652.010861 50070.674098 
z
" clip-path="url(#pd344d65f03)" style="fill: #1f77b4"/>
   </g>
   <g id="patch_82">
    <path d="M 659.318484 50070.674098 
L 666.626107 50070.674098 
L 666.626107 50070.674098 
L 659.318484 50070.674098 
z
" clip-path="url(#pd344d65f03)" style="fill: #1f77b4"/>
   </g>
   <g id="patch_83">
    <path d="M 666.626107 50070.674098 
L 673.933731 50070.674098 
L 673.933731 50070.674098 
L 666.626107 50070.674098 
z
" clip-path="url(#pd344d65f03)" style="fill: #1f77b4"/>
   </g>
   <g id="patch_84">
    <path d="M 673.933731 50070.674098 
L 681.241354 50070.674098 
L 681.241354 50070.674098 
L 673.933731 50070.674098 
z
" clip-path="url(#pd344d65f03)" style="fill: #1f77b4"/>
   </g>
   <g id="patch_85">
    <path d="M 681.241354 50070.674098 
L 688.548977 50070.674098 
L 688.548977 50070.674098 
L 681.241354 50070.674098 
z
" clip-path="url(#pd344d65f03)" style="fill: #1f77b4"/>
   </g>
   <g id="patch_86">
    <path d="M 688.548977 50070.674098 
L 695.856601 50070.674098 
L 695.856601 50070.674098 
L 688.548977 50070.674098 
z
" clip-path="url(#pd344d65f03)" style="fill: #1f77b4"/>
   </g>
   <g id="patch_87">
    <path d="M 695.856601 50070.674098 
L 703.164224 50070.674098 
L 703.164224 50070.674098 
L 695.856601 50070.674098 
z
" clip-path="url(#pd344d65f03)" style="fill: #1f77b4"/>
   </g>
   <g id="patch_88">
    <path d="M 703.164224 50070.674098 
L 710.471847 50070.674098 
L 710.471847 50070.674098 
L 703.164224 50070.674098 
z
" clip-path="url(#pd344d65f03)" style="fill: #1f77b4"/>
   </g>
   <g id="patch_89">
    <path d="M 710.471847 50070.674098 
L 717.77947 50070.674098 
L 717.77947 50070.674098 
L 710.471847 50070.674098 
z
" clip-path="url(#pd344d65f03)" style="fill: #1f77b4"/>
   </g>
   <g id="patch_90">
    <path d="M 717.77947 50070.674098 
L 725.087094 50070.674098 
L 725.087094 50070.674098 
L 717.77947 50070.674098 
z
" clip-path="url(#pd344d65f03)" style="fill: #1f77b4"/>
   </g>
   <g id="patch_91">
    <path d="M 725.087094 50070.674098 
L 732.394717 50070.674098 
L 732.394717 50070.674098 
L 725.087094 50070.674098 
z
" clip-path="url(#pd344d65f03)" style="fill: #1f77b4"/>
   </g>
   <g id="patch_92">
    <path d="M 732.394717 50070.674098 
L 739.70234 50070.674098 
L 739.70234 50070.674098 
L 732.394717 50070.674098 
z
" clip-path="url(#pd344d65f03)" style="fill: #1f77b4"/>
   </g>
   <g id="patch_93">
    <path d="M 739.70234 50070.674098 
L 747.009964 50070.674098 
L 747.009964 50070.674098 
L 739.70234 50070.674098 
z
" clip-path="url(#pd344d65f03)" style="fill: #1f77b4"/>
   </g>
   <g id="patch_94">
    <path d="M 747.009964 50070.674098 
L 754.317587 50070.674098 
L 754.317587 50070.674098 
L 747.009964 50070.674098 
z
" clip-path="url(#pd344d65f03)" style="fill: #1f77b4"/>
   </g>
   <g id="patch_95">
    <path d="M 754.317587 50070.674098 
L 761.62521 50070.674098 
L 761.62521 50070.674098 
L 754.317587 50070.674098 
z
" clip-path="url(#pd344d65f03)" style="fill: #1f77b4"/>
   </g>
   <g id="patch_96">
    <path d="M 761.62521 50070.674098 
L 768.932834 50070.674098 
L 768.932834 50070.674098 
L 761.62521 50070.674098 
z
" clip-path="url(#pd344d65f03)" style="fill: #1f77b4"/>
   </g>
   <g id="patch_97">
    <path d="M 768.932834 50070.674098 
L 776.240457 50070.674098 
L 776.240457 50070.674098 
L 768.932834 50070.674098 
z
" clip-path="url(#pd344d65f03)" style="fill: #1f77b4"/>
   </g>
   <g id="patch_98">
    <path d="M 776.240457 50070.674098 
L 783.54808 50070.674098 
L 783.54808 50070.674098 
L 776.240457 50070.674098 
z
" clip-path="url(#pd344d65f03)" style="fill: #1f77b4"/>
   </g>
   <g id="patch_99">
    <path d="M 783.54808 50070.674098 
L 790.855704 50070.674098 
L 790.855704 50070.674098 
L 783.54808 50070.674098 
z
" clip-path="url(#pd344d65f03)" style="fill: #1f77b4"/>
   </g>
   <g id="patch_100">
    <path d="M 790.855704 50070.674098 
L 798.163327 50070.674098 
L 798.163327 50070.674098 
L 790.855704 50070.674098 
z
" clip-path="url(#pd344d65f03)" style="fill: #1f77b4"/>
   </g>
   <g id="patch_101">
    <path d="M 798.163327 50070.674098 
L 805.47095 50070.674098 
L 805.47095 50070.674098 
L 798.163327 50070.674098 
z
" clip-path="url(#pd344d65f03)" style="fill: #1f77b4"/>
   </g>
   <g id="patch_102">
    <path d="M 805.47095 50070.674098 
L 812.778574 50070.674098 
L 812.778574 163.476307 
L 805.47095 163.476307 
z
" clip-path="url(#pd344d65f03)" style="fill: #1f77b4"/>
   </g>
   <g id="matplotlib.axis_1">
    <g id="xtick_1">
     <g id="line2d_1">
      <defs>
       <path id="m1f36dabe72" d="M 0 0 
L 0 3.5 
" style="stroke: #000000; stroke-width: 0.8"/>
      </defs>
      <g>
       <use xlink:href="#m1f36dabe72" x="82.016062" y="170.198125" style="stroke: #000000; stroke-width: 0.8"/>
      </g>
     </g>
     <g id="text_1">
      <!-- 0 -->
      <g transform="translate(78.834812 184.796562) scale(0.1 -0.1)">
       <defs>
        <path id="DejaVuSans-30" d="M 2034 4250 
Q 1547 4250 1301 3770 
Q 1056 3291 1056 2328 
Q 1056 1369 1301 889 
Q 1547 409 2034 409 
Q 2525 409 2770 889 
Q 3016 1369 3016 2328 
Q 3016 3291 2770 3770 
Q 2525 4250 2034 4250 
z
M 2034 4750 
Q 2819 4750 3233 4129 
Q 3647 3509 3647 2328 
Q 3647 1150 3233 529 
Q 2819 -91 2034 -91 
Q 1250 -91 836 529 
Q 422 1150 422 2328 
Q 422 3509 836 4129 
Q 1250 4750 2034 4750 
z
" transform="scale(0.015625)"/>
       </defs>
       <use xlink:href="#DejaVuSans-30"/>
      </g>
     </g>
    </g>
    <g id="xtick_2">
     <g id="line2d_2">
      <g>
       <use xlink:href="#m1f36dabe72" x="171.968773" y="170.198125" style="stroke: #000000; stroke-width: 0.8"/>
      </g>
     </g>
     <g id="text_2">
      <!-- 500000 -->
      <g transform="translate(152.881273 184.796562) scale(0.1 -0.1)">
       <defs>
        <path id="DejaVuSans-35" d="M 691 4666 
L 3169 4666 
L 3169 4134 
L 1269 4134 
L 1269 2991 
Q 1406 3038 1543 3061 
Q 1681 3084 1819 3084 
Q 2600 3084 3056 2656 
Q 3513 2228 3513 1497 
Q 3513 744 3044 326 
Q 2575 -91 1722 -91 
Q 1428 -91 1123 -41 
Q 819 9 494 109 
L 494 744 
Q 775 591 1075 516 
Q 1375 441 1709 441 
Q 2250 441 2565 725 
Q 2881 1009 2881 1497 
Q 2881 1984 2565 2268 
Q 2250 2553 1709 2553 
Q 1456 2553 1204 2497 
Q 953 2441 691 2322 
L 691 4666 
z
" transform="scale(0.015625)"/>
       </defs>
       <use xlink:href="#DejaVuSans-35"/>
       <use xlink:href="#DejaVuSans-30" transform="translate(63.623047 0)"/>
       <use xlink:href="#DejaVuSans-30" transform="translate(127.246094 0)"/>
       <use xlink:href="#DejaVuSans-30" transform="translate(190.869141 0)"/>
       <use xlink:href="#DejaVuSans-30" transform="translate(254.492188 0)"/>
       <use xlink:href="#DejaVuSans-30" transform="translate(318.115234 0)"/>
      </g>
     </g>
    </g>
    <g id="xtick_3">
     <g id="line2d_3">
      <g>
       <use xlink:href="#m1f36dabe72" x="261.921484" y="170.198125" style="stroke: #000000; stroke-width: 0.8"/>
      </g>
     </g>
     <g id="text_3">
      <!-- 1000000 -->
      <g transform="translate(239.652734 184.796562) scale(0.1 -0.1)">
       <defs>
        <path id="DejaVuSans-31" d="M 794 531 
L 1825 531 
L 1825 4091 
L 703 3866 
L 703 4441 
L 1819 4666 
L 2450 4666 
L 2450 531 
L 3481 531 
L 3481 0 
L 794 0 
L 794 531 
z
" transform="scale(0.015625)"/>
       </defs>
       <use xlink:href="#DejaVuSans-31"/>
       <use xlink:href="#DejaVuSans-30" transform="translate(63.623047 0)"/>
       <use xlink:href="#DejaVuSans-30" transform="translate(127.246094 0)"/>
       <use xlink:href="#DejaVuSans-30" transform="translate(190.869141 0)"/>
       <use xlink:href="#DejaVuSans-30" transform="translate(254.492188 0)"/>
       <use xlink:href="#DejaVuSans-30" transform="translate(318.115234 0)"/>
       <use xlink:href="#DejaVuSans-30" transform="translate(381.738281 0)"/>
      </g>
     </g>
    </g>
    <g id="xtick_4">
     <g id="line2d_4">
      <g>
       <use xlink:href="#m1f36dabe72" x="351.874195" y="170.198125" style="stroke: #000000; stroke-width: 0.8"/>
      </g>
     </g>
     <g id="text_4">
      <!-- 1500000 -->
      <g transform="translate(329.605445 184.796562) scale(0.1 -0.1)">
       <use xlink:href="#DejaVuSans-31"/>
       <use xlink:href="#DejaVuSans-35" transform="translate(63.623047 0)"/>
       <use xlink:href="#DejaVuSans-30" transform="translate(127.246094 0)"/>
       <use xlink:href="#DejaVuSans-30" transform="translate(190.869141 0)"/>
       <use xlink:href="#DejaVuSans-30" transform="translate(254.492188 0)"/>
       <use xlink:href="#DejaVuSans-30" transform="translate(318.115234 0)"/>
       <use xlink:href="#DejaVuSans-30" transform="translate(381.738281 0)"/>
      </g>
     </g>
    </g>
    <g id="xtick_5">
     <g id="line2d_5">
      <g>
       <use xlink:href="#m1f36dabe72" x="441.826906" y="170.198125" style="stroke: #000000; stroke-width: 0.8"/>
      </g>
     </g>
     <g id="text_5">
      <!-- 2000000 -->
      <g transform="translate(419.558156 184.796562) scale(0.1 -0.1)">
       <defs>
        <path id="DejaVuSans-32" d="M 1228 531 
L 3431 531 
L 3431 0 
L 469 0 
L 469 531 
Q 828 903 1448 1529 
Q 2069 2156 2228 2338 
Q 2531 2678 2651 2914 
Q 2772 3150 2772 3378 
Q 2772 3750 2511 3984 
Q 2250 4219 1831 4219 
Q 1534 4219 1204 4116 
Q 875 4013 500 3803 
L 500 4441 
Q 881 4594 1212 4672 
Q 1544 4750 1819 4750 
Q 2544 4750 2975 4387 
Q 3406 4025 3406 3419 
Q 3406 3131 3298 2873 
Q 3191 2616 2906 2266 
Q 2828 2175 2409 1742 
Q 1991 1309 1228 531 
z
" transform="scale(0.015625)"/>
       </defs>
       <use xlink:href="#DejaVuSans-32"/>
       <use xlink:href="#DejaVuSans-30" transform="translate(63.623047 0)"/>
       <use xlink:href="#DejaVuSans-30" transform="translate(127.246094 0)"/>
       <use xlink:href="#DejaVuSans-30" transform="translate(190.869141 0)"/>
       <use xlink:href="#DejaVuSans-30" transform="translate(254.492188 0)"/>
       <use xlink:href="#DejaVuSans-30" transform="translate(318.115234 0)"/>
       <use xlink:href="#DejaVuSans-30" transform="translate(381.738281 0)"/>
      </g>
     </g>
    </g>
    <g id="xtick_6">
     <g id="line2d_6">
      <g>
       <use xlink:href="#m1f36dabe72" x="531.779617" y="170.198125" style="stroke: #000000; stroke-width: 0.8"/>
      </g>
     </g>
     <g id="text_6">
      <!-- 2500000 -->
      <g transform="translate(509.510867 184.796562) scale(0.1 -0.1)">
       <use xlink:href="#DejaVuSans-32"/>
       <use xlink:href="#DejaVuSans-35" transform="translate(63.623047 0)"/>
       <use xlink:href="#DejaVuSans-30" transform="translate(127.246094 0)"/>
       <use xlink:href="#DejaVuSans-30" transform="translate(190.869141 0)"/>
       <use xlink:href="#DejaVuSans-30" transform="translate(254.492188 0)"/>
       <use xlink:href="#DejaVuSans-30" transform="translate(318.115234 0)"/>
       <use xlink:href="#DejaVuSans-30" transform="translate(381.738281 0)"/>
      </g>
     </g>
    </g>
    <g id="xtick_7">
     <g id="line2d_7">
      <g>
       <use xlink:href="#m1f36dabe72" x="621.732328" y="170.198125" style="stroke: #000000; stroke-width: 0.8"/>
      </g>
     </g>
     <g id="text_7">
      <!-- 3000000 -->
      <g transform="translate(599.463578 184.796562) scale(0.1 -0.1)">
       <defs>
        <path id="DejaVuSans-33" d="M 2597 2516 
Q 3050 2419 3304 2112 
Q 3559 1806 3559 1356 
Q 3559 666 3084 287 
Q 2609 -91 1734 -91 
Q 1441 -91 1130 -33 
Q 819 25 488 141 
L 488 750 
Q 750 597 1062 519 
Q 1375 441 1716 441 
Q 2309 441 2620 675 
Q 2931 909 2931 1356 
Q 2931 1769 2642 2001 
Q 2353 2234 1838 2234 
L 1294 2234 
L 1294 2753 
L 1863 2753 
Q 2328 2753 2575 2939 
Q 2822 3125 2822 3475 
Q 2822 3834 2567 4026 
Q 2313 4219 1838 4219 
Q 1578 4219 1281 4162 
Q 984 4106 628 3988 
L 628 4550 
Q 988 4650 1302 4700 
Q 1616 4750 1894 4750 
Q 2613 4750 3031 4423 
Q 3450 4097 3450 3541 
Q 3450 3153 3228 2886 
Q 3006 2619 2597 2516 
z
" transform="scale(0.015625)"/>
       </defs>
       <use xlink:href="#DejaVuSans-33"/>
       <use xlink:href="#DejaVuSans-30" transform="translate(63.623047 0)"/>
       <use xlink:href="#DejaVuSans-30" transform="translate(127.246094 0)"/>
       <use xlink:href="#DejaVuSans-30" transform="translate(190.869141 0)"/>
       <use xlink:href="#DejaVuSans-30" transform="translate(254.492188 0)"/>
       <use xlink:href="#DejaVuSans-30" transform="translate(318.115234 0)"/>
       <use xlink:href="#DejaVuSans-30" transform="translate(381.738281 0)"/>
      </g>
     </g>
    </g>
    <g id="xtick_8">
     <g id="line2d_8">
      <g>
       <use xlink:href="#m1f36dabe72" x="711.685039" y="170.198125" style="stroke: #000000; stroke-width: 0.8"/>
      </g>
     </g>
     <g id="text_8">
      <!-- 3500000 -->
      <g transform="translate(689.416289 184.796562) scale(0.1 -0.1)">
       <use xlink:href="#DejaVuSans-33"/>
       <use xlink:href="#DejaVuSans-35" transform="translate(63.623047 0)"/>
       <use xlink:href="#DejaVuSans-30" transform="translate(127.246094 0)"/>
       <use xlink:href="#DejaVuSans-30" transform="translate(190.869141 0)"/>
       <use xlink:href="#DejaVuSans-30" transform="translate(254.492188 0)"/>
       <use xlink:href="#DejaVuSans-30" transform="translate(318.115234 0)"/>
       <use xlink:href="#DejaVuSans-30" transform="translate(381.738281 0)"/>
      </g>
     </g>
    </g>
    <g id="xtick_9">
     <g id="line2d_9">
      <g>
       <use xlink:href="#m1f36dabe72" x="801.63775" y="170.198125" style="stroke: #000000; stroke-width: 0.8"/>
      </g>
     </g>
     <g id="text_9">
      <!-- 4000000 -->
      <g transform="translate(779.369 184.796562) scale(0.1 -0.1)">
       <defs>
        <path id="DejaVuSans-34" d="M 2419 4116 
L 825 1625 
L 2419 1625 
L 2419 4116 
z
M 2253 4666 
L 3047 4666 
L 3047 1625 
L 3713 1625 
L 3713 1100 
L 3047 1100 
L 3047 0 
L 2419 0 
L 2419 1100 
L 313 1100 
L 313 1709 
L 2253 4666 
z
" transform="scale(0.015625)"/>
       </defs>
       <use xlink:href="#DejaVuSans-34"/>
       <use xlink:href="#DejaVuSans-30" transform="translate(63.623047 0)"/>
       <use xlink:href="#DejaVuSans-30" transform="translate(127.246094 0)"/>
       <use xlink:href="#DejaVuSans-30" transform="translate(190.869141 0)"/>
       <use xlink:href="#DejaVuSans-30" transform="translate(254.492188 0)"/>
       <use xlink:href="#DejaVuSans-30" transform="translate(318.115234 0)"/>
       <use xlink:href="#DejaVuSans-30" transform="translate(381.738281 0)"/>
      </g>
     </g>
    </g>
    <g id="text_10">
     <!-- Number of Distinct Values on the Build Side -->
     <g transform="translate(338.162251 198.474687) scale(0.1 -0.1)">
      <defs>
       <path id="DejaVuSans-4e" d="M 628 4666 
L 1478 4666 
L 3547 763 
L 3547 4666 
L 4159 4666 
L 4159 0 
L 3309 0 
L 1241 3903 
L 1241 0 
L 628 0 
L 628 4666 
z
" transform="scale(0.015625)"/>
       <path id="DejaVuSans-75" d="M 544 1381 
L 544 3500 
L 1119 3500 
L 1119 1403 
Q 1119 906 1312 657 
Q 1506 409 1894 409 
Q 2359 409 2629 706 
Q 2900 1003 2900 1516 
L 2900 3500 
L 3475 3500 
L 3475 0 
L 2900 0 
L 2900 538 
Q 2691 219 2414 64 
Q 2138 -91 1772 -91 
Q 1169 -91 856 284 
Q 544 659 544 1381 
z
M 1991 3584 
L 1991 3584 
z
" transform="scale(0.015625)"/>
       <path id="DejaVuSans-6d" d="M 3328 2828 
Q 3544 3216 3844 3400 
Q 4144 3584 4550 3584 
Q 5097 3584 5394 3201 
Q 5691 2819 5691 2113 
L 5691 0 
L 5113 0 
L 5113 2094 
Q 5113 2597 4934 2840 
Q 4756 3084 4391 3084 
Q 3944 3084 3684 2787 
Q 3425 2491 3425 1978 
L 3425 0 
L 2847 0 
L 2847 2094 
Q 2847 2600 2669 2842 
Q 2491 3084 2119 3084 
Q 1678 3084 1418 2786 
Q 1159 2488 1159 1978 
L 1159 0 
L 581 0 
L 581 3500 
L 1159 3500 
L 1159 2956 
Q 1356 3278 1631 3431 
Q 1906 3584 2284 3584 
Q 2666 3584 2933 3390 
Q 3200 3197 3328 2828 
z
" transform="scale(0.015625)"/>
       <path id="DejaVuSans-62" d="M 3116 1747 
Q 3116 2381 2855 2742 
Q 2594 3103 2138 3103 
Q 1681 3103 1420 2742 
Q 1159 2381 1159 1747 
Q 1159 1113 1420 752 
Q 1681 391 2138 391 
Q 2594 391 2855 752 
Q 3116 1113 3116 1747 
z
M 1159 2969 
Q 1341 3281 1617 3432 
Q 1894 3584 2278 3584 
Q 2916 3584 3314 3078 
Q 3713 2572 3713 1747 
Q 3713 922 3314 415 
Q 2916 -91 2278 -91 
Q 1894 -91 1617 61 
Q 1341 213 1159 525 
L 1159 0 
L 581 0 
L 581 4863 
L 1159 4863 
L 1159 2969 
z
" transform="scale(0.015625)"/>
       <path id="DejaVuSans-65" d="M 3597 1894 
L 3597 1613 
L 953 1613 
Q 991 1019 1311 708 
Q 1631 397 2203 397 
Q 2534 397 2845 478 
Q 3156 559 3463 722 
L 3463 178 
Q 3153 47 2828 -22 
Q 2503 -91 2169 -91 
Q 1331 -91 842 396 
Q 353 884 353 1716 
Q 353 2575 817 3079 
Q 1281 3584 2069 3584 
Q 2775 3584 3186 3129 
Q 3597 2675 3597 1894 
z
M 3022 2063 
Q 3016 2534 2758 2815 
Q 2500 3097 2075 3097 
Q 1594 3097 1305 2825 
Q 1016 2553 972 2059 
L 3022 2063 
z
" transform="scale(0.015625)"/>
       <path id="DejaVuSans-72" d="M 2631 2963 
Q 2534 3019 2420 3045 
Q 2306 3072 2169 3072 
Q 1681 3072 1420 2755 
Q 1159 2438 1159 1844 
L 1159 0 
L 581 0 
L 581 3500 
L 1159 3500 
L 1159 2956 
Q 1341 3275 1631 3429 
Q 1922 3584 2338 3584 
Q 2397 3584 2469 3576 
Q 2541 3569 2628 3553 
L 2631 2963 
z
" transform="scale(0.015625)"/>
       <path id="DejaVuSans-20" transform="scale(0.015625)"/>
       <path id="DejaVuSans-6f" d="M 1959 3097 
Q 1497 3097 1228 2736 
Q 959 2375 959 1747 
Q 959 1119 1226 758 
Q 1494 397 1959 397 
Q 2419 397 2687 759 
Q 2956 1122 2956 1747 
Q 2956 2369 2687 2733 
Q 2419 3097 1959 3097 
z
M 1959 3584 
Q 2709 3584 3137 3096 
Q 3566 2609 3566 1747 
Q 3566 888 3137 398 
Q 2709 -91 1959 -91 
Q 1206 -91 779 398 
Q 353 888 353 1747 
Q 353 2609 779 3096 
Q 1206 3584 1959 3584 
z
" transform="scale(0.015625)"/>
       <path id="DejaVuSans-66" d="M 2375 4863 
L 2375 4384 
L 1825 4384 
Q 1516 4384 1395 4259 
Q 1275 4134 1275 3809 
L 1275 3500 
L 2222 3500 
L 2222 3053 
L 1275 3053 
L 1275 0 
L 697 0 
L 697 3053 
L 147 3053 
L 147 3500 
L 697 3500 
L 697 3744 
Q 697 4328 969 4595 
Q 1241 4863 1831 4863 
L 2375 4863 
z
" transform="scale(0.015625)"/>
       <path id="DejaVuSans-44" d="M 1259 4147 
L 1259 519 
L 2022 519 
Q 2988 519 3436 956 
Q 3884 1394 3884 2338 
Q 3884 3275 3436 3711 
Q 2988 4147 2022 4147 
L 1259 4147 
z
M 628 4666 
L 1925 4666 
Q 3281 4666 3915 4102 
Q 4550 3538 4550 2338 
Q 4550 1131 3912 565 
Q 3275 0 1925 0 
L 628 0 
L 628 4666 
z
" transform="scale(0.015625)"/>
       <path id="DejaVuSans-69" d="M 603 3500 
L 1178 3500 
L 1178 0 
L 603 0 
L 603 3500 
z
M 603 4863 
L 1178 4863 
L 1178 4134 
L 603 4134 
L 603 4863 
z
" transform="scale(0.015625)"/>
       <path id="DejaVuSans-73" d="M 2834 3397 
L 2834 2853 
Q 2591 2978 2328 3040 
Q 2066 3103 1784 3103 
Q 1356 3103 1142 2972 
Q 928 2841 928 2578 
Q 928 2378 1081 2264 
Q 1234 2150 1697 2047 
L 1894 2003 
Q 2506 1872 2764 1633 
Q 3022 1394 3022 966 
Q 3022 478 2636 193 
Q 2250 -91 1575 -91 
Q 1294 -91 989 -36 
Q 684 19 347 128 
L 347 722 
Q 666 556 975 473 
Q 1284 391 1588 391 
Q 1994 391 2212 530 
Q 2431 669 2431 922 
Q 2431 1156 2273 1281 
Q 2116 1406 1581 1522 
L 1381 1569 
Q 847 1681 609 1914 
Q 372 2147 372 2553 
Q 372 3047 722 3315 
Q 1072 3584 1716 3584 
Q 2034 3584 2315 3537 
Q 2597 3491 2834 3397 
z
" transform="scale(0.015625)"/>
       <path id="DejaVuSans-74" d="M 1172 4494 
L 1172 3500 
L 2356 3500 
L 2356 3053 
L 1172 3053 
L 1172 1153 
Q 1172 725 1289 603 
Q 1406 481 1766 481 
L 2356 481 
L 2356 0 
L 1766 0 
Q 1100 0 847 248 
Q 594 497 594 1153 
L 594 3053 
L 172 3053 
L 172 3500 
L 594 3500 
L 594 4494 
L 1172 4494 
z
" transform="scale(0.015625)"/>
       <path id="DejaVuSans-6e" d="M 3513 2113 
L 3513 0 
L 2938 0 
L 2938 2094 
Q 2938 2591 2744 2837 
Q 2550 3084 2163 3084 
Q 1697 3084 1428 2787 
Q 1159 2491 1159 1978 
L 1159 0 
L 581 0 
L 581 3500 
L 1159 3500 
L 1159 2956 
Q 1366 3272 1645 3428 
Q 1925 3584 2291 3584 
Q 2894 3584 3203 3211 
Q 3513 2838 3513 2113 
z
" transform="scale(0.015625)"/>
       <path id="DejaVuSans-63" d="M 3122 3366 
L 3122 2828 
Q 2878 2963 2633 3030 
Q 2388 3097 2138 3097 
Q 1578 3097 1268 2742 
Q 959 2388 959 1747 
Q 959 1106 1268 751 
Q 1578 397 2138 397 
Q 2388 397 2633 464 
Q 2878 531 3122 666 
L 3122 134 
Q 2881 22 2623 -34 
Q 2366 -91 2075 -91 
Q 1284 -91 818 406 
Q 353 903 353 1747 
Q 353 2603 823 3093 
Q 1294 3584 2113 3584 
Q 2378 3584 2631 3529 
Q 2884 3475 3122 3366 
z
" transform="scale(0.015625)"/>
       <path id="DejaVuSans-56" d="M 1831 0 
L 50 4666 
L 709 4666 
L 2188 738 
L 3669 4666 
L 4325 4666 
L 2547 0 
L 1831 0 
z
" transform="scale(0.015625)"/>
       <path id="DejaVuSans-61" d="M 2194 1759 
Q 1497 1759 1228 1600 
Q 959 1441 959 1056 
Q 959 750 1161 570 
Q 1363 391 1709 391 
Q 2188 391 2477 730 
Q 2766 1069 2766 1631 
L 2766 1759 
L 2194 1759 
z
M 3341 1997 
L 3341 0 
L 2766 0 
L 2766 531 
Q 2569 213 2275 61 
Q 1981 -91 1556 -91 
Q 1019 -91 701 211 
Q 384 513 384 1019 
Q 384 1609 779 1909 
Q 1175 2209 1959 2209 
L 2766 2209 
L 2766 2266 
Q 2766 2663 2505 2880 
Q 2244 3097 1772 3097 
Q 1472 3097 1187 3025 
Q 903 2953 641 2809 
L 641 3341 
Q 956 3463 1253 3523 
Q 1550 3584 1831 3584 
Q 2591 3584 2966 3190 
Q 3341 2797 3341 1997 
z
" transform="scale(0.015625)"/>
       <path id="DejaVuSans-6c" d="M 603 4863 
L 1178 4863 
L 1178 0 
L 603 0 
L 603 4863 
z
" transform="scale(0.015625)"/>
       <path id="DejaVuSans-68" d="M 3513 2113 
L 3513 0 
L 2938 0 
L 2938 2094 
Q 2938 2591 2744 2837 
Q 2550 3084 2163 3084 
Q 1697 3084 1428 2787 
Q 1159 2491 1159 1978 
L 1159 0 
L 581 0 
L 581 4863 
L 1159 4863 
L 1159 2956 
Q 1366 3272 1645 3428 
Q 1925 3584 2291 3584 
Q 2894 3584 3203 3211 
Q 3513 2838 3513 2113 
z
" transform="scale(0.015625)"/>
       <path id="DejaVuSans-42" d="M 1259 2228 
L 1259 519 
L 2272 519 
Q 2781 519 3026 730 
Q 3272 941 3272 1375 
Q 3272 1813 3026 2020 
Q 2781 2228 2272 2228 
L 1259 2228 
z
M 1259 4147 
L 1259 2741 
L 2194 2741 
Q 2656 2741 2882 2914 
Q 3109 3088 3109 3444 
Q 3109 3797 2882 3972 
Q 2656 4147 2194 4147 
L 1259 4147 
z
M 628 4666 
L 2241 4666 
Q 2963 4666 3353 4366 
Q 3744 4066 3744 3513 
Q 3744 3084 3544 2831 
Q 3344 2578 2956 2516 
Q 3422 2416 3680 2098 
Q 3938 1781 3938 1306 
Q 3938 681 3513 340 
Q 3088 0 2303 0 
L 628 0 
L 628 4666 
z
" transform="scale(0.015625)"/>
       <path id="DejaVuSans-64" d="M 2906 2969 
L 2906 4863 
L 3481 4863 
L 3481 0 
L 2906 0 
L 2906 525 
Q 2725 213 2448 61 
Q 2172 -91 1784 -91 
Q 1150 -91 751 415 
Q 353 922 353 1747 
Q 353 2572 751 3078 
Q 1150 3584 1784 3584 
Q 2172 3584 2448 3432 
Q 2725 3281 2906 2969 
z
M 947 1747 
Q 947 1113 1208 752 
Q 1469 391 1925 391 
Q 2381 391 2643 752 
Q 2906 1113 2906 1747 
Q 2906 2381 2643 2742 
Q 2381 3103 1925 3103 
Q 1469 3103 1208 2742 
Q 947 2381 947 1747 
z
" transform="scale(0.015625)"/>
       <path id="DejaVuSans-53" d="M 3425 4513 
L 3425 3897 
Q 3066 4069 2747 4153 
Q 2428 4238 2131 4238 
Q 1616 4238 1336 4038 
Q 1056 3838 1056 3469 
Q 1056 3159 1242 3001 
Q 1428 2844 1947 2747 
L 2328 2669 
Q 3034 2534 3370 2195 
Q 3706 1856 3706 1288 
Q 3706 609 3251 259 
Q 2797 -91 1919 -91 
Q 1588 -91 1214 -16 
Q 841 59 441 206 
L 441 856 
Q 825 641 1194 531 
Q 1563 422 1919 422 
Q 2459 422 2753 634 
Q 3047 847 3047 1241 
Q 3047 1584 2836 1778 
Q 2625 1972 2144 2069 
L 1759 2144 
Q 1053 2284 737 2584 
Q 422 2884 422 3419 
Q 422 4038 858 4394 
Q 1294 4750 2059 4750 
Q 2388 4750 2728 4690 
Q 3069 4631 3425 4513 
z
" transform="scale(0.015625)"/>
      </defs>
      <use xlink:href="#DejaVuSans-4e"/>
      <use xlink:href="#DejaVuSans-75" transform="translate(74.804688 0)"/>
      <use xlink:href="#DejaVuSans-6d" transform="translate(138.183594 0)"/>
      <use xlink:href="#DejaVuSans-62" transform="translate(235.595703 0)"/>
      <use xlink:href="#DejaVuSans-65" transform="translate(299.072266 0)"/>
      <use xlink:href="#DejaVuSans-72" transform="translate(360.595703 0)"/>
      <use xlink:href="#DejaVuSans-20" transform="translate(401.708984 0)"/>
      <use xlink:href="#DejaVuSans-6f" transform="translate(433.496094 0)"/>
      <use xlink:href="#DejaVuSans-66" transform="translate(494.677734 0)"/>
      <use xlink:href="#DejaVuSans-20" transform="translate(529.882812 0)"/>
      <use xlink:href="#DejaVuSans-44" transform="translate(561.669922 0)"/>
      <use xlink:href="#DejaVuSans-69" transform="translate(638.671875 0)"/>
      <use xlink:href="#DejaVuSans-73" transform="translate(666.455078 0)"/>
      <use xlink:href="#DejaVuSans-74" transform="translate(718.554688 0)"/>
      <use xlink:href="#DejaVuSans-69" transform="translate(757.763672 0)"/>
      <use xlink:href="#DejaVuSans-6e" transform="translate(785.546875 0)"/>
      <use xlink:href="#DejaVuSans-63" transform="translate(848.925781 0)"/>
      <use xlink:href="#DejaVuSans-74" transform="translate(903.90625 0)"/>
      <use xlink:href="#DejaVuSans-20" transform="translate(943.115234 0)"/>
      <use xlink:href="#DejaVuSans-56" transform="translate(974.902344 0)"/>
      <use xlink:href="#DejaVuSans-61" transform="translate(1035.560547 0)"/>
      <use xlink:href="#DejaVuSans-6c" transform="translate(1096.839844 0)"/>
      <use xlink:href="#DejaVuSans-75" transform="translate(1124.623047 0)"/>
      <use xlink:href="#DejaVuSans-65" transform="translate(1188.001953 0)"/>
      <use xlink:href="#DejaVuSans-73" transform="translate(1249.525391 0)"/>
      <use xlink:href="#DejaVuSans-20" transform="translate(1301.625 0)"/>
      <use xlink:href="#DejaVuSans-6f" transform="translate(1333.412109 0)"/>
      <use xlink:href="#DejaVuSans-6e" transform="translate(1394.59375 0)"/>
      <use xlink:href="#DejaVuSans-20" transform="translate(1457.972656 0)"/>
      <use xlink:href="#DejaVuSans-74" transform="translate(1489.759766 0)"/>
      <use xlink:href="#DejaVuSans-68" transform="translate(1528.96875 0)"/>
      <use xlink:href="#DejaVuSans-65" transform="translate(1592.347656 0)"/>
      <use xlink:href="#DejaVuSans-20" transform="translate(1653.871094 0)"/>
      <use xlink:href="#DejaVuSans-42" transform="translate(1685.658203 0)"/>
      <use xlink:href="#DejaVuSans-75" transform="translate(1754.261719 0)"/>
      <use xlink:href="#DejaVuSans-69" transform="translate(1817.640625 0)"/>
      <use xlink:href="#DejaVuSans-6c" transform="translate(1845.423828 0)"/>
      <use xlink:href="#DejaVuSans-64" transform="translate(1873.207031 0)"/>
      <use xlink:href="#DejaVuSans-20" transform="translate(1936.683594 0)"/>
      <use xlink:href="#DejaVuSans-53" transform="translate(1968.470703 0)"/>
      <use xlink:href="#DejaVuSans-69" transform="translate(2031.947266 0)"/>
      <use xlink:href="#DejaVuSans-64" transform="translate(2059.730469 0)"/>
      <use xlink:href="#DejaVuSans-65" transform="translate(2123.207031 0)"/>
     </g>
    </g>
   </g>
   <g id="matplotlib.axis_2">
    <g id="ytick_1">
     <g id="line2d_10">
      <defs>
       <path id="m83669d0dc2" d="M 0 0 
L -3.5 0 
" style="stroke: #000000; stroke-width: 0.8"/>
      </defs>
      <g>
       <use xlink:href="#m83669d0dc2" x="45.478125" y="163.476307" style="stroke: #000000; stroke-width: 0.8"/>
      </g>
     </g>
     <g id="text_11">
      <!-- $\mathdefault{10^{0}}$ -->
      <g transform="translate(20.878125 167.275526) scale(0.1 -0.1)">
       <use xlink:href="#DejaVuSans-31" transform="translate(0 0.765625)"/>
       <use xlink:href="#DejaVuSans-30" transform="translate(63.623047 0.765625)"/>
       <use xlink:href="#DejaVuSans-30" transform="translate(128.203125 39.046875) scale(0.7)"/>
      </g>
     </g>
    </g>
    <g id="ytick_2">
     <g id="line2d_11">
      <g>
       <use xlink:href="#m83669d0dc2" x="45.478125" y="113.569109" style="stroke: #000000; stroke-width: 0.8"/>
      </g>
     </g>
     <g id="text_12">
      <!-- $\mathdefault{10^{1}}$ -->
      <g transform="translate(20.878125 117.368328) scale(0.1 -0.1)">
       <use xlink:href="#DejaVuSans-31" transform="translate(0 0.684375)"/>
       <use xlink:href="#DejaVuSans-30" transform="translate(63.623047 0.684375)"/>
       <use xlink:href="#DejaVuSans-31" transform="translate(128.203125 38.965625) scale(0.7)"/>
      </g>
     </g>
    </g>
    <g id="ytick_3">
     <g id="line2d_12">
      <g>
       <use xlink:href="#m83669d0dc2" x="45.478125" y="63.661911" style="stroke: #000000; stroke-width: 0.8"/>
      </g>
     </g>
     <g id="text_13">
      <!-- $\mathdefault{10^{2}}$ -->
      <g transform="translate(20.878125 67.46113) scale(0.1 -0.1)">
       <use xlink:href="#DejaVuSans-31" transform="translate(0 0.765625)"/>
       <use xlink:href="#DejaVuSans-30" transform="translate(63.623047 0.765625)"/>
       <use xlink:href="#DejaVuSans-32" transform="translate(128.203125 39.046875) scale(0.7)"/>
      </g>
     </g>
    </g>
    <g id="ytick_4">
     <g id="line2d_13">
      <defs>
       <path id="m43d6686267" d="M 0 0 
L -2 0 
" style="stroke: #000000; stroke-width: 0.6"/>
      </defs>
      <g>
       <use xlink:href="#m43d6686267" x="45.478125" y="168.312814" style="stroke: #000000; stroke-width: 0.6"/>
      </g>
     </g>
    </g>
    <g id="ytick_5">
     <g id="line2d_14">
      <g>
       <use xlink:href="#m43d6686267" x="45.478125" y="165.759935" style="stroke: #000000; stroke-width: 0.6"/>
      </g>
     </g>
    </g>
    <g id="ytick_6">
     <g id="line2d_15">
      <g>
       <use xlink:href="#m43d6686267" x="45.478125" y="148.452743" style="stroke: #000000; stroke-width: 0.6"/>
      </g>
     </g>
    </g>
    <g id="ytick_7">
     <g id="line2d_16">
      <g>
       <use xlink:href="#m43d6686267" x="45.478125" y="139.664522" style="stroke: #000000; stroke-width: 0.6"/>
      </g>
     </g>
    </g>
    <g id="ytick_8">
     <g id="line2d_17">
      <g>
       <use xlink:href="#m43d6686267" x="45.478125" y="133.42918" style="stroke: #000000; stroke-width: 0.6"/>
      </g>
     </g>
    </g>
    <g id="ytick_9">
     <g id="line2d_18">
      <g>
       <use xlink:href="#m43d6686267" x="45.478125" y="128.592673" style="stroke: #000000; stroke-width: 0.6"/>
      </g>
     </g>
    </g>
    <g id="ytick_10">
     <g id="line2d_19">
      <g>
       <use xlink:href="#m43d6686267" x="45.478125" y="124.640958" style="stroke: #000000; stroke-width: 0.6"/>
      </g>
     </g>
    </g>
    <g id="ytick_11">
     <g id="line2d_20">
      <g>
       <use xlink:href="#m43d6686267" x="45.478125" y="121.299832" style="stroke: #000000; stroke-width: 0.6"/>
      </g>
     </g>
    </g>
    <g id="ytick_12">
     <g id="line2d_21">
      <g>
       <use xlink:href="#m43d6686267" x="45.478125" y="118.405616" style="stroke: #000000; stroke-width: 0.6"/>
      </g>
     </g>
    </g>
    <g id="ytick_13">
     <g id="line2d_22">
      <g>
       <use xlink:href="#m43d6686267" x="45.478125" y="115.852737" style="stroke: #000000; stroke-width: 0.6"/>
      </g>
     </g>
    </g>
    <g id="ytick_14">
     <g id="line2d_23">
      <g>
       <use xlink:href="#m43d6686267" x="45.478125" y="98.545545" style="stroke: #000000; stroke-width: 0.6"/>
      </g>
     </g>
    </g>
    <g id="ytick_15">
     <g id="line2d_24">
      <g>
       <use xlink:href="#m43d6686267" x="45.478125" y="89.757324" style="stroke: #000000; stroke-width: 0.6"/>
      </g>
     </g>
    </g>
    <g id="ytick_16">
     <g id="line2d_25">
      <g>
       <use xlink:href="#m43d6686267" x="45.478125" y="83.521982" style="stroke: #000000; stroke-width: 0.6"/>
      </g>
     </g>
    </g>
    <g id="ytick_17">
     <g id="line2d_26">
      <g>
       <use xlink:href="#m43d6686267" x="45.478125" y="78.685475" style="stroke: #000000; stroke-width: 0.6"/>
      </g>
     </g>
    </g>
    <g id="ytick_18">
     <g id="line2d_27">
      <g>
       <use xlink:href="#m43d6686267" x="45.478125" y="74.733761" style="stroke: #000000; stroke-width: 0.6"/>
      </g>
     </g>
    </g>
    <g id="ytick_19">
     <g id="line2d_28">
      <g>
       <use xlink:href="#m43d6686267" x="45.478125" y="71.392634" style="stroke: #000000; stroke-width: 0.6"/>
      </g>
     </g>
    </g>
    <g id="ytick_20">
     <g id="line2d_29">
      <g>
       <use xlink:href="#m43d6686267" x="45.478125" y="68.498418" style="stroke: #000000; stroke-width: 0.6"/>
      </g>
     </g>
    </g>
    <g id="ytick_21">
     <g id="line2d_30">
      <g>
       <use xlink:href="#m43d6686267" x="45.478125" y="65.945539" style="stroke: #000000; stroke-width: 0.6"/>
      </g>
     </g>
    </g>
    <g id="ytick_22">
     <g id="line2d_31">
      <g>
       <use xlink:href="#m43d6686267" x="45.478125" y="48.638348" style="stroke: #000000; stroke-width: 0.6"/>
      </g>
     </g>
    </g>
    <g id="ytick_23">
     <g id="line2d_32">
      <g>
       <use xlink:href="#m43d6686267" x="45.478125" y="39.850126" style="stroke: #000000; stroke-width: 0.6"/>
      </g>
     </g>
    </g>
    <g id="ytick_24">
     <g id="line2d_33">
      <g>
       <use xlink:href="#m43d6686267" x="45.478125" y="33.614784" style="stroke: #000000; stroke-width: 0.6"/>
      </g>
     </g>
    </g>
    <g id="ytick_25">
     <g id="line2d_34">
      <g>
       <use xlink:href="#m43d6686267" x="45.478125" y="28.778277" style="stroke: #000000; stroke-width: 0.6"/>
      </g>
     </g>
    </g>
    <g id="ytick_26">
     <g id="line2d_35">
      <g>
       <use xlink:href="#m43d6686267" x="45.478125" y="24.826563" style="stroke: #000000; stroke-width: 0.6"/>
      </g>
     </g>
    </g>
    <g id="text_14">
     <!-- Number of Joins -->
     <g transform="translate(14.798438 136.038594) rotate(-90) scale(0.1 -0.1)">
      <defs>
       <path id="DejaVuSans-4a" d="M 628 4666 
L 1259 4666 
L 1259 325 
Q 1259 -519 939 -900 
Q 619 -1281 -91 -1281 
L -331 -1281 
L -331 -750 
L -134 -750 
Q 284 -750 456 -515 
Q 628 -281 628 325 
L 628 4666 
z
" transform="scale(0.015625)"/>
      </defs>
      <use xlink:href="#DejaVuSans-4e"/>
      <use xlink:href="#DejaVuSans-75" transform="translate(74.804688 0)"/>
      <use xlink:href="#DejaVuSans-6d" transform="translate(138.183594 0)"/>
      <use xlink:href="#DejaVuSans-62" transform="translate(235.595703 0)"/>
      <use xlink:href="#DejaVuSans-65" transform="translate(299.072266 0)"/>
      <use xlink:href="#DejaVuSans-72" transform="translate(360.595703 0)"/>
      <use xlink:href="#DejaVuSans-20" transform="translate(401.708984 0)"/>
      <use xlink:href="#DejaVuSans-6f" transform="translate(433.496094 0)"/>
      <use xlink:href="#DejaVuSans-66" transform="translate(494.677734 0)"/>
      <use xlink:href="#DejaVuSans-20" transform="translate(529.882812 0)"/>
      <use xlink:href="#DejaVuSans-4a" transform="translate(561.669922 0)"/>
      <use xlink:href="#DejaVuSans-6f" transform="translate(591.162109 0)"/>
      <use xlink:href="#DejaVuSans-69" transform="translate(652.34375 0)"/>
      <use xlink:href="#DejaVuSans-6e" transform="translate(680.126953 0)"/>
      <use xlink:href="#DejaVuSans-73" transform="translate(743.505859 0)"/>
     </g>
    </g>
   </g>
   <g id="patch_103">
    <path d="M 45.478125 170.198125 
L 45.478125 22.318125 
" style="fill: none; stroke: #000000; stroke-width: 0.8; stroke-linejoin: miter; stroke-linecap: square"/>
   </g>
   <g id="patch_104">
    <path d="M 849.31669 170.198125 
L 849.31669 22.318125 
" style="fill: none; stroke: #000000; stroke-width: 0.8; stroke-linejoin: miter; stroke-linecap: square"/>
   </g>
   <g id="patch_105">
    <path d="M 45.478125 170.198125 
L 849.31669 170.198125 
" style="fill: none; stroke: #000000; stroke-width: 0.8; stroke-linejoin: miter; stroke-linecap: square"/>
   </g>
   <g id="patch_106">
    <path d="M 45.478125 22.318125 
L 849.31669 22.318125 
" style="fill: none; stroke: #000000; stroke-width: 0.8; stroke-linejoin: miter; stroke-linecap: square"/>
   </g>
   <g id="text_15">
    <!-- Distribution of the Number of Distinct Values for Join Build Sides in JOB -->
    <g transform="translate(235.103345 16.318125) scale(0.12 -0.12)">
     <defs>
      <path id="DejaVuSans-4f" d="M 2522 4238 
Q 1834 4238 1429 3725 
Q 1025 3213 1025 2328 
Q 1025 1447 1429 934 
Q 1834 422 2522 422 
Q 3209 422 3611 934 
Q 4013 1447 4013 2328 
Q 4013 3213 3611 3725 
Q 3209 4238 2522 4238 
z
M 2522 4750 
Q 3503 4750 4090 4092 
Q 4678 3434 4678 2328 
Q 4678 1225 4090 567 
Q 3503 -91 2522 -91 
Q 1538 -91 948 565 
Q 359 1222 359 2328 
Q 359 3434 948 4092 
Q 1538 4750 2522 4750 
z
" transform="scale(0.015625)"/>
     </defs>
     <use xlink:href="#DejaVuSans-44"/>
     <use xlink:href="#DejaVuSans-69" transform="translate(77.001953 0)"/>
     <use xlink:href="#DejaVuSans-73" transform="translate(104.785156 0)"/>
     <use xlink:href="#DejaVuSans-74" transform="translate(156.884766 0)"/>
     <use xlink:href="#DejaVuSans-72" transform="translate(196.09375 0)"/>
     <use xlink:href="#DejaVuSans-69" transform="translate(237.207031 0)"/>
     <use xlink:href="#DejaVuSans-62" transform="translate(264.990234 0)"/>
     <use xlink:href="#DejaVuSans-75" transform="translate(328.466797 0)"/>
     <use xlink:href="#DejaVuSans-74" transform="translate(391.845703 0)"/>
     <use xlink:href="#DejaVuSans-69" transform="translate(431.054688 0)"/>
     <use xlink:href="#DejaVuSans-6f" transform="translate(458.837891 0)"/>
     <use xlink:href="#DejaVuSans-6e" transform="translate(520.019531 0)"/>
     <use xlink:href="#DejaVuSans-20" transform="translate(583.398438 0)"/>
     <use xlink:href="#DejaVuSans-6f" transform="translate(615.185547 0)"/>
     <use xlink:href="#DejaVuSans-66" transform="translate(676.367188 0)"/>
     <use xlink:href="#DejaVuSans-20" transform="translate(711.572266 0)"/>
     <use xlink:href="#DejaVuSans-74" transform="translate(743.359375 0)"/>
     <use xlink:href="#DejaVuSans-68" transform="translate(782.568359 0)"/>
     <use xlink:href="#DejaVuSans-65" transform="translate(845.947266 0)"/>
     <use xlink:href="#DejaVuSans-20" transform="translate(907.470703 0)"/>
     <use xlink:href="#DejaVuSans-4e" transform="translate(939.257812 0)"/>
     <use xlink:href="#DejaVuSans-75" transform="translate(1014.0625 0)"/>
     <use xlink:href="#DejaVuSans-6d" transform="translate(1077.441406 0)"/>
     <use xlink:href="#DejaVuSans-62" transform="translate(1174.853516 0)"/>
     <use xlink:href="#DejaVuSans-65" transform="translate(1238.330078 0)"/>
     <use xlink:href="#DejaVuSans-72" transform="translate(1299.853516 0)"/>
     <use xlink:href="#DejaVuSans-20" transform="translate(1340.966797 0)"/>
     <use xlink:href="#DejaVuSans-6f" transform="translate(1372.753906 0)"/>
     <use xlink:href="#DejaVuSans-66" transform="translate(1433.935547 0)"/>
     <use xlink:href="#DejaVuSans-20" transform="translate(1469.140625 0)"/>
     <use xlink:href="#DejaVuSans-44" transform="translate(1500.927734 0)"/>
     <use xlink:href="#DejaVuSans-69" transform="translate(1577.929688 0)"/>
     <use xlink:href="#DejaVuSans-73" transform="translate(1605.712891 0)"/>
     <use xlink:href="#DejaVuSans-74" transform="translate(1657.8125 0)"/>
     <use xlink:href="#DejaVuSans-69" transform="translate(1697.021484 0)"/>
     <use xlink:href="#DejaVuSans-6e" transform="translate(1724.804688 0)"/>
     <use xlink:href="#DejaVuSans-63" transform="translate(1788.183594 0)"/>
     <use xlink:href="#DejaVuSans-74" transform="translate(1843.164062 0)"/>
     <use xlink:href="#DejaVuSans-20" transform="translate(1882.373047 0)"/>
     <use xlink:href="#DejaVuSans-56" transform="translate(1914.160156 0)"/>
     <use xlink:href="#DejaVuSans-61" transform="translate(1974.818359 0)"/>
     <use xlink:href="#DejaVuSans-6c" transform="translate(2036.097656 0)"/>
     <use xlink:href="#DejaVuSans-75" transform="translate(2063.880859 0)"/>
     <use xlink:href="#DejaVuSans-65" transform="translate(2127.259766 0)"/>
     <use xlink:href="#DejaVuSans-73" transform="translate(2188.783203 0)"/>
     <use xlink:href="#DejaVuSans-20" transform="translate(2240.882812 0)"/>
     <use xlink:href="#DejaVuSans-66" transform="translate(2272.669922 0)"/>
     <use xlink:href="#DejaVuSans-6f" transform="translate(2307.875 0)"/>
     <use xlink:href="#DejaVuSans-72" transform="translate(2369.056641 0)"/>
     <use xlink:href="#DejaVuSans-20" transform="translate(2410.169922 0)"/>
     <use xlink:href="#DejaVuSans-4a" transform="translate(2441.957031 0)"/>
     <use xlink:href="#DejaVuSans-6f" transform="translate(2471.449219 0)"/>
     <use xlink:href="#DejaVuSans-69" transform="translate(2532.630859 0)"/>
     <use xlink:href="#DejaVuSans-6e" transform="translate(2560.414062 0)"/>
     <use xlink:href="#DejaVuSans-20" transform="translate(2623.792969 0)"/>
     <use xlink:href="#DejaVuSans-42" transform="translate(2655.580078 0)"/>
     <use xlink:href="#DejaVuSans-75" transform="translate(2724.183594 0)"/>
     <use xlink:href="#DejaVuSans-69" transform="translate(2787.5625 0)"/>
     <use xlink:href="#DejaVuSans-6c" transform="translate(2815.345703 0)"/>
     <use xlink:href="#DejaVuSans-64" transform="translate(2843.128906 0)"/>
     <use xlink:href="#DejaVuSans-20" transform="translate(2906.605469 0)"/>
     <use xlink:href="#DejaVuSans-53" transform="translate(2938.392578 0)"/>
     <use xlink:href="#DejaVuSans-69" transform="translate(3001.869141 0)"/>
     <use xlink:href="#DejaVuSans-64" transform="translate(3029.652344 0)"/>
     <use xlink:href="#DejaVuSans-65" transform="translate(3093.128906 0)"/>
     <use xlink:href="#DejaVuSans-73" transform="translate(3154.652344 0)"/>
     <use xlink:href="#DejaVuSans-20" transform="translate(3206.751953 0)"/>
     <use xlink:href="#DejaVuSans-69" transform="translate(3238.539062 0)"/>
     <use xlink:href="#DejaVuSans-6e" transform="translate(3266.322266 0)"/>
     <use xlink:href="#DejaVuSans-20" transform="translate(3329.701172 0)"/>
     <use xlink:href="#DejaVuSans-4a" transform="translate(3361.488281 0)"/>
     <use xlink:href="#DejaVuSans-4f" transform="translate(3390.980469 0)"/>
     <use xlink:href="#DejaVuSans-42" transform="translate(3469.691406 0)"/>
    </g>
   </g>
  </g>
 </g>
 <defs>
  <clipPath id="pd344d65f03">
   <rect x="45.478125" y="22.318125" width="803.838565" height="147.88"/>
  </clipPath>
 </defs>
</svg>
