<svg xmlns="http://www.w3.org/2000/svg" xmlns:xlink="http://www.w3.org/1999/xlink" id="Ebene_1" x="0" y="0" version="1.1" viewBox="0 0 1209.5 344.4" style="enable-background:new 0 0 1209.5 344.4" xml:space="preserve"><style type="text/css">.st0{fill:#fff100}</style><path d="M666.6,129.5v69.7c0,15-9.3,25.6-22,25.6h-6.2c-13,0-22-10.6-22-25.6v-69.7h-24.5v74c0,26.7,19.2,45.9,46.1,45.9h7.1	c26.9,0,45.9-19.2,45.9-45.9v-74H666.6z M890.1,171.8l45.4-47.8h-34.2l-39.9,43V95.7h-24.2v151.7h24.2v-44.5l11.7-12.3l39.9,56.9h30	L890.1,171.8z M508.5,223.2h-29.3v-103h29.3c22.7,0,40.8,23.1,40.8,51.1C549.3,200.2,531.2,223.2,508.5,223.2z M508.5,95.5h-53.6	v152.1h53.6c35.9,0,65.3-33.9,65.3-76.3C573.8,129.9,544.5,95.5,508.5,95.5z M1013.1,223.2h-28.9v-103h28.9	c22.9,0,40.8,23.1,40.8,51.1C1053.9,200.2,1036,223.2,1013.1,223.2z M1013.1,95.5h-53.3v152.1h53.3c36.4,0,65.3-33.9,65.3-76.3	C1078.4,129.9,1049.5,95.5,1013.1,95.5z M1159.3,223.2h-37.7v-42.1h37.7c11.2,0,20.9,9.7,20.9,20.9	C1180.2,213.9,1170.5,223.2,1159.3,223.2z M1121.6,156.6v-36.4h30c10.1,0,18.3,7.9,18.3,18.1c0,10.1-8.2,18.3-18.3,18.3H1121.6z M1185.1,164.7c5.5-7.3,9.3-16.5,9.3-26.5c0-23.4-19.6-42.8-42.8-42.8h-54.2v152.1h61.9c25.1,0,45.2-20.5,45.2-45.6	C1204.5,186.6,1197,173.1,1185.1,164.7z M760,152.2h6c14.5,0,26.5,10.6,26.5,23.8h24.7c0-26.2-23.1-47.8-51.1-47.8h-6	c-27.6,0-49.8,22.3-49.8,49.6v21.8c0,27.6,22.3,49.8,49.8,49.8h6c28.9,0,52.5-21.6,52.5-47.6h-24.7c0,12.6-12.6,22.9-27.8,22.9h-6	c-14.1,0-25.8-11.2-25.8-25.1v-21.8C734.3,163.6,745.9,152.2,760,152.2z"/><path d="M172.2,339.4L172.2,339.4C79.7,339.4,5,264.7,5,172.2l0,0C5,79.7,79.7,5,172.2,5l0,0c92.5,0,167.2,74.7,167.2,167.2l0,0	C339.4,264.7,264.7,339.4,172.2,339.4z"/><path d="M261.6,147.4h-32.8v49.5h32.8c13.6,0,24.9-11.3,24.9-24.9C286.5,158.3,275.2,147.4,261.6,147.4" class="st0"/><path d="M68.1,172.2c0,38.2,31.1,69.3,69.3,69.3s69.3-31.1,69.3-69.3s-31.1-69.3-69.3-69.3S68.1,134,68.1,172.2	L68.1,172.2" class="st0"/></svg>