<?xml version="1.0" encoding="utf-8"?>
<!-- Generator: Adobe Illustrator 24.1.2, SVG Export Plug-In . SVG Version: 6.00 Build 0)  -->
<svg version="1.1" id="Ebene_1" xmlns="http://www.w3.org/2000/svg" xmlns:xlink="http://www.w3.org/1999/xlink" x="0px" y="0px"
	 viewBox="0 0 996 166" style="enable-background:new 0 0 996 166;" xml:space="preserve">
<path d="M231.1,53.6h-38.7v58.8h38.7c16.2,0,29.4-13.2,29.4-29.4S247.3,53.6,231.1,53.6"/>
<path d="M1.6,83c0,45.4,36.8,82.1,82.1,82.1s82.1-36.8,82.1-82.1S129.1,0.9,83.7,0.9S1.6,37.6,1.6,83"/>
<path d="M555.1,109.9c0,10.2-8.3,18.6-18.6,18.6h-6.5c-10.2,0-18.6-8.3-18.6-18.6l0.1-64.4l-21.3,0l-0.1,64.4
	c0,22,17.9,39.9,39.9,39.9h6.5c22,0,39.9-17.9,39.9-39.9l0.1-64.4l-21.3,0L555.1,109.9z"/>
<path d="M628.1,61.7h5.5c12.2,0,22,9.9,22,22h21.3c0-23.9-19.4-43.4-43.3-43.4h-5.5c-23.9,0-43.3,19.5-43.3,43.4v22.8
	c0,23.9,19.5,43.3,43.3,43.3h5.5c23.9,0,43.3-19.5,43.3-43.3v-1.6h-21.3v1.6c0,12.2-9.9,22-22,22h-5.5c-12.2,0-22-9.9-22-22V83.7
	C606,71.6,615.9,61.7,628.1,61.7"/>
<path d="M954.8,127.1h-32.3V90.5h32.3c10.1,0,18.3,8.2,18.3,18.3S964.9,127.1,954.8,127.1 M922.5,37.5h25.8
	c8.7,0,15.8,7.1,15.8,15.9c0,8.7-7.1,15.8-15.8,15.8l-25.8,0V37.5z M977.4,76.3c5-6.3,8-14.3,8-23c0-20.5-16.7-37.2-37.1-37.2h-47.1
	v132.2h53.6c21.8,0,39.6-17.8,39.6-39.6C994.4,95.4,987.7,83.5,977.4,76.3"/>
<path d="M834.7,127.1H809V37.5h25.7c19.5,0,35.3,20.1,35.3,44.8C870,107,854.2,127.1,834.7,127.1 M834.7,16.2h-47v132.2h47
	c31.2,0,56.6-29.7,56.6-66.1S865.9,16.2,834.7,16.2"/>
<path d="M424.7,127.1h-25.7V37.5h25.7c19.5,0,35.3,20.1,35.3,44.8C460,107,444.2,127.1,424.7,127.1 M424.7,16.2h-47v132.2h47
	c31.2,0,56.6-29.7,56.6-66.1S455.9,16.2,424.7,16.2"/>
<polygon points="773.7,40.7 744.5,40.7 709.1,78.3 709.1,16.5 687.8,16.5 687.8,148.2 709.1,148.2 709.1,109.4 719.3,98.6 
	754.1,148.2 780.1,148.2 734.2,82.7 "/>
</svg>
