<svg xmlns="http://www.w3.org/2000/svg" xmlns:xlink="http://www.w3.org/1999/xlink" id="Ebene_1" x="0" y="0" version="1.1" viewBox="0 0 802.9 609.4" style="enable-background:new 0 0 802.9 609.4" xml:space="preserve"><style type="text/css">.st0{fill:#fff100}</style><path d="M401.4,346.9L401.4,346.9c-92.5,0-167.2-74.7-167.2-167.2l0,0c0-92.5,74.7-167.2,167.2-167.2l0,0	c92.5,0,167.2,74.7,167.2,167.2l0,0C568.6,272.1,493.9,346.9,401.4,346.9z" class="st0"/><path d="M490.8,154.7H458v49.5h32.8c13.7,0,24.9-11.3,24.9-24.9S504.5,154.7,490.8,154.7"/><path d="M297.3,179.6c0,38.2,31.1,69.3,69.3,69.3c38.2,0,69.3-31.1,69.3-69.3s-31.1-69.3-69.3-69.3	C328.4,110.3,297.3,141.4,297.3,179.6L297.3,179.6"/><path d="M238.3,464.4v69.7c0,15-9.3,25.6-22,25.6h-6.2c-13,0-22-10.6-22-25.6v-69.7h-24.5v74.1	c0,26.7,19.2,45.9,46.1,45.9h7.1c26.9,0,45.9-19.2,45.9-45.9v-74.1H238.3z M461.8,506.8l45.4-47.8h-34.2l-39.9,43v-71.2h-24.2v151.7	h24.2v-44.5l11.7-12.3l39.9,56.9h30L461.8,506.8z M80.2,558.1H50.9V455.2h29.3c22.7,0,40.8,23.1,40.8,51.1	C121,535.2,103,558.1,80.2,558.1z M80.2,430.5H26.7v152.1h53.6c35.9,0,65.3-33.9,65.3-76.3C145.5,464.9,116.2,430.5,80.2,430.5z M584.8,558.1H556V455.2h28.9c22.9,0,40.8,23.1,40.8,51.1C625.6,535.2,607.8,558.1,584.8,558.1z M584.8,430.5h-53.3v152.1h53.3	c36.4,0,65.3-33.9,65.3-76.3C650.1,464.9,621.2,430.5,584.8,430.5z M731,558.1h-37.7V516H731c11.2,0,20.9,9.7,20.9,20.9	C751.9,548.9,742.2,558.1,731,558.1z M693.3,491.5v-36.4h30c10.1,0,18.3,7.9,18.3,18.1s-8.2,18.3-18.3,18.3H693.3z M756.8,499.7	c5.5-7.3,9.3-16.5,9.3-26.5c0-23.4-19.6-42.8-42.8-42.8H669v152.1H731c25.1,0,45.2-20.5,45.2-45.6	C776.2,521.5,768.7,508.1,756.8,499.7z M331.8,487.1h6c14.5,0,26.5,10.6,26.5,23.8h24.7c0-26.2-23.1-47.8-51.1-47.8h-6	c-27.6,0-49.8,22.3-49.8,49.6v21.8c0,27.6,22.3,49.8,49.8,49.8h6c28.9,0,52.5-21.6,52.5-47.6h-24.7c0,12.6-12.6,22.9-27.8,22.9h-6	c-14.1,0-25.8-11.2-25.8-25.1v-21.8C306,498.6,317.7,487.1,331.8,487.1z" class="st0"/></svg>