<svg id="Layer_1" data-name="Layer 1" xmlns="http://www.w3.org/2000/svg" viewBox="0 0 900 900"><defs><style>.cls-1{font-size:190px;fill:#fff;font-family:SourceCodePro-Regular, Source Code Pro;letter-spacing:-0.03em;}.cls-2{fill:#f2f2f2;}</style></defs><title>duckdb-logo</title><circle cx="450" cy="450" r="450"/><text class="cls-1" transform="translate(132.19 710.25)">DuckDB</text><path class="cls-2" d="M485.14,315.05c2.91-1.95,6.38-2,9.61-2.83a11.24,11.24,0,0,1,1.84-.16,1.83,1.83,0,0,0,1.85-1.7,1.91,1.91,0,0,0-1.16-2.25c-.55-.23-.59-.69-.69-1.38,1-1.9,1.32-2.12,2.92-2.84s2.7-1.39,3-3.13a3.37,3.37,0,0,1,.64-1.21,3,3,0,0,1,4-1.08,5.61,5.61,0,0,1,3.59,3.91,4.81,4.81,0,0,0,1.34,2.85c1.37,0,1.6-1.33,2.37-2,1.25-1.07,2.31-1.4,3.23-.28,1.81,2.21,5.14,2.06,6.68,4.64.5.82,1.68.77,2.57.51a15.84,15.84,0,0,0,3.43-1.33q9.89-5.52,19.68-11.18a27.51,27.51,0,0,0,4.5-3.22A76.44,76.44,0,0,1,568,283.3a29,29,0,0,0,6.48-5.14A86.16,86.16,0,0,1,614,254.54c3.81-1,7.63-.85,11.47-.59a6.24,6.24,0,0,1,3.74,1.66c1.25,1.11,2.53.86,3.82.09,1.05-.64,2.11-1.28,3.15-1.93a104.27,104.27,0,0,1,21.69-10.2c3.78-1.28,7.41-3,11.11-4.53,2.7-1.12,5.34-2.44,8.12-3.32,8.07-2.55,15.89-5.84,24.06-8.13,12-3.37,24.17-6.12,36.34-8.87,1.2-.27,2.4-.54,3.57-.91,5.73-1.81,11.47-3.47,17.54-3.73a15.69,15.69,0,0,0,4.45-1.14,25.71,25.71,0,0,1,10-1.56,28.43,28.43,0,0,0,7.35-.6,13.22,13.22,0,0,1,4.12-.16,4.65,4.65,0,0,1,3.8,3,1.7,1.7,0,0,1-.79,2.35,42.53,42.53,0,0,1-12.19,4.13,60.61,60.61,0,0,0-9.43,2.2c-2.1.69-2.15,1.52-.59,3.29a6.83,6.83,0,0,0,5.25,2.41,70.39,70.39,0,0,1,14.13,2.09c1.65.4,3.34.54,5,.88a4.53,4.53,0,0,1,3.33,2.24,1.77,1.77,0,0,1-.58,2.42,10,10,0,0,1-2.56,1c-3.17.63-6.34,1.31-9.54,1.69-4.12.49-8.28.72-12.42,1.07a11.79,11.79,0,0,0-4.92,1.08,1.56,1.56,0,0,0-.19,2.67,17.83,17.83,0,0,0,6.21,3,34.82,34.82,0,0,0,7.72,1.3,7.19,7.19,0,0,1,6.18,3.45c.88,1.26,1.83,2.49,2.62,3.8,1.29,2.13.88,3.91-1.3,5-3.3,1.69-6.67,3.26-10.55,2.88-3.65-.35-6.95,1.11-10.32,2.13a1.9,1.9,0,0,0-1,2.67,4.79,4.79,0,0,0,3,2.66c2.72,1.07,5.43,2.2,8.22,3.09,3.84,1.22,7.21,3.47,10.93,4.94a5.47,5.47,0,0,1,1.5,1.06,2.07,2.07,0,0,1,.76,2.05,1.83,1.83,0,0,1-1.61,1.45c-3,.45-6.1.64-9.14,1.24a75,75,0,0,1-16.51,1.69,25.61,25.61,0,0,0-2.77.06c-2.06.18-2.87,1.78-1.93,3.62a6.29,6.29,0,0,0,2.72,2.39c3.32,1.95,6.66,3.88,9.93,5.91,1.95,1.22,3.85,2.55,5.67,4a13.22,13.22,0,0,1,2.49,2.68,1.87,1.87,0,0,1-.7,2.77,11.52,11.52,0,0,1-5.33,1.38,86.7,86.7,0,0,0-12.84,1.35c-1.7.37-3.35-.24-5-.62-1.35-.3-2.72-.51-4.08-.79-.79-.16-1.57-.23-2.06.53a2.29,2.29,0,0,0,.1,2.21,6.55,6.55,0,0,0,2.27,2.86c1.46,1.12,2.94,2.23,4.45,3.29a31.62,31.62,0,0,1,6.11,5.61,11.18,11.18,0,0,1,1.28,1.91,1.67,1.67,0,0,1-1.22,2.47c-2.28.38-4.57.64-6.86,1-2.58.39-5.17.79-7.75,1.23a1.34,1.34,0,0,0-1,2.1c.56,1.08,1.29,2.09,1.85,3.18a1.89,1.89,0,0,1-.9,2.74,44.64,44.64,0,0,1-5.13,2.06q-5.26,1.72-10.58,3.29c-1.44.42-2.52,1.05-2.75,2.7a4.07,4.07,0,0,1-2.17,2.84,23.57,23.57,0,0,1-2.78,1.64c-5.32,2.41-10.47,5.25-16.29,6.39a8.22,8.22,0,0,0-4,2.13c-3.37,3-7.52,4.77-11.72,6.31-2.22.81-4.56.55-6.87.46a15.31,15.31,0,0,0-5.05.27c-.8.24-1.51.81-1.38,1.62.31,1.86-.49,3.61-.54,5.5,1.81.77,3.48.38,5.13.19,5.81-.66,11.62-1.25,17.47-1.56,4.45-.24,8.88-.78,13.32-1.2q8-.78,16.07-1.6c4.89-.5,9.78-1,14.67-1.56a14.22,14.22,0,0,1,1.83-.2c5.72.23,11.36-.69,17-1s11.34-1,17-1.52c6-.6,11.93-1.27,17.89-1.93,1.33-.14,2.44.09,3.1,1.42.48,1,1.42,1.08,2.37,1.12l6.12.26c-.36,1.2-1.2.9-1.78.94-4.45.3-8.82,1.42-13.31,1.29a3.86,3.86,0,0,0-1.34.27,1.89,1.89,0,0,0-1.32,1.72,1.62,1.62,0,0,0,1.23,1.74c2.69.68,5.39,1.29,8.08,1.92,1.2.28,2.41.51,3.59.84.55.16,1.27.39,1.21,1.13s-.8.83-1.41.8c-1.84-.09-3.69-.22-5.53-.3a2.42,2.42,0,0,0-2.45.92c-1,1.56-2.5,1.7-4.05,1.72q-10.62.12-21.25.17a9.27,9.27,0,0,1-2.29-.29c-1.87-.5-3.69-1.15-4.06,1.84-.09.69-1.12,1-1.91,1.06-3.69.2-7.28,1.35-11,1.15a18.12,18.12,0,0,0-5.44.89c-4.91,1.27-9.63,3.26-14.68,4-2.58.38-5.26.27-7.78.86s-4,2.78-6.35,3.62c-3.19,1.13-6.3,2.47-9.44,3.74a11,11,0,0,1-5,.81c-1.07-.08-2.15-.1-3.23-.09a2.76,2.76,0,0,0-2.73,1.42c-1.68,3.63-5.17,5.17-8.23,7.16-1.93,1.25-4.16,2-6,3.46a3.56,3.56,0,0,1-3.93.29,4.28,4.28,0,0,1-.84-.39c-3.06-2.21-6.35-2-9.71-.89-1.62.51-3.22,1.07-4.84,1.56-1.92.6-3.84,1.14-5.79,0a2.76,2.76,0,0,0-3.06.26,13.25,13.25,0,0,1-6.51,2.08,8.37,8.37,0,0,0-3.47,1.14,18.29,18.29,0,0,1-6.78,2.74,4.47,4.47,0,0,0-3.62,3.24c-.67,2.14-2.19,3.22-4.07,4.09a8,8,0,0,0-2.64,1.79,6.63,6.63,0,0,1-4,2.14,4.32,4.32,0,0,0-3.47,2.69c-1.22,2.81-3.83,3.38-6.47,3.68-1.43.16-2.62-.66-3.74-1.56s-1.49-2.36-3.36-2.69c-.89,5.07-4.48,9-5.79,13.88a3.74,3.74,0,0,1-2,2.4c-.67.36-1.66.6-1.93,1.17-1.6,3.3-4.5,6-5.44,9.45s-2.72,5-5.94,5.46a2.4,2.4,0,0,1-.46.05c-2.21,0-3.23,1.36-4,3.22-1,2.42-2.12,4.78-3.22,7.16-1,2.2-1.57,2.41-4,1.76a8.5,8.5,0,0,1-5.5-3.89,15.56,15.56,0,0,0-6.07-5.54,2.13,2.13,0,0,0-2.59.08,32.47,32.47,0,0,1-6.17,4c-1.88.9-2.38,2.75-2.62,4.61a36.49,36.49,0,0,1-2.15,7.54,7.39,7.39,0,0,1-1.05,2,1.39,1.39,0,0,1-2,.33c-1.59-1.2-3.15-2.45-4.64-3.76a3,3,0,0,1-.83-1.6,22.26,22.26,0,0,1-.74-4.55,18.36,18.36,0,0,0-1.81-7.1c-.75-1.81-1.55-3.23-3.88-3.33-1.46-.06-2.37-1.33-2.94-2.67a16.32,16.32,0,0,0-5-6.53,8.09,8.09,0,0,1-1.23-1.38,60.87,60.87,0,0,0-9.64-9.88c-2.46-1.9-3.89-4.71-5.59-7.08-1.14.16-1.05.87-1.1,1.44a15.71,15.71,0,0,0,1,5.87c1.87,6.35,3.93,12.64,5.5,19.08,1.82,7.46,1.71,15,1.17,22.5a179.59,179.59,0,0,0,0,29.06c.62,6.95.59,13.82-1.42,20.61a79.2,79.2,0,0,0-2.13,9.92,15.22,15.22,0,0,1-5,9.59c-1.51,1.3-3,2.68-4.42,4a1,1,0,0,0,.36,1.54,14.54,14.54,0,0,0,9.46.94c.8-.21,1.56-.18,2,.62a2.29,2.29,0,0,1-1,2.8A12.09,12.09,0,0,1,506.9,563c-2.59.32-5.19.64-7.78,1-1.83.25-2.46.77-2.63,2a3,3,0,0,0,1.73,3.43,19.33,19.33,0,0,0,3,1.12,18.86,18.86,0,0,0,2.27.38c.75.12,1.54.16,1.91,1,.28.61-.55,1.56-1.65,1.89-2,.6-4,.31-6,.4-2.54.11-3,.42-3.3,2.85-.81,5.8-1.53,11.6-1.88,17.45-.1,1.52.61,4-1.64,4.13-1.63.09-1.6-2.33-2.05-3.73a14.77,14.77,0,0,1-.62-8.63,15.47,15.47,0,0,0,.33-3.21,2,2,0,0,0-.88-2,5.57,5.57,0,0,1-2.51-3.2c-1.57-4.28-4.31-7.82-7.12-11.28a64.7,64.7,0,0,1-7.47-11.09,51.5,51.5,0,0,0-5.8-8.33,14.2,14.2,0,0,0-2.71-2.48c-1.79-1.31-2.64-1.13-3.44.88a16,16,0,0,1-5.78,7.05c-4.49,3.26-8.73,6.82-13,10.4a24.54,24.54,0,0,0-7.65,10.79,6.51,6.51,0,0,1-3.42,4,13.12,13.12,0,0,0-7,7.58,35.84,35.84,0,0,1-4.59,8.52c-4.34,6.36-8.76,12.64-14.22,18.13-1.52,1.52-2.72,3.35-4.12,5a35.09,35.09,0,0,1-2.87,3,1.56,1.56,0,0,1-1.26.28c-.47-.13-.55-.74-.38-1.15a12.47,12.47,0,0,0,.75-5.44c-.07-2.16-1.39-3.05-3.38-2.21-1.12.47-2.11,1.27-3.22,1.79s-2.53,1.37-3.86.42c-.86-.61-.33-2.29,1.25-4,1.36-1.47,2.74-2.93,4.2-4.29,5.11-4.76,9.19-10.36,13.28-16a43.25,43.25,0,0,1,5.29-6.4,50.65,50.65,0,0,0,9.28-12,15.78,15.78,0,0,1,4.64-5c3.13-2.24,6.27-4.46,9.35-6.78,4.1-3.08,7.68-6.62,10-11.31a17.7,17.7,0,0,1,5.12-5.88c1.93-1.53,1.93-2.12.53-4.27-1-1.55-2.07-3.06-3.13-4.58a8.13,8.13,0,0,0-3.34-3.11,9,9,0,0,1-4.72-5.43c-1-2.55-2.23-5.09-2.38-7.91-.18-3.55-2.41-5.89-4.82-8.09a1.48,1.48,0,0,0-2.09.12,32.21,32.21,0,0,0-5.78,7.17,3.34,3.34,0,0,0-.31,2.68c.36,1.65.73,3.31,1.05,5a6,6,0,0,1-.18,3.63,1.28,1.28,0,0,1-1.53.73,3.22,3.22,0,0,1-2.4-2c-.28-.7-.3-1.5-.52-2.23s.37-2.19-1.06-1.93c-.86.16-1.14,1.49-1,2.38a38.35,38.35,0,0,1,.53,8.28,25.89,25.89,0,0,1-.51,4.57c-1.27,5.71-2.74,11.38-3.92,17.1a9.81,9.81,0,0,1-2.78,5.18c-.87.86-1.28.83-2.23-.19-1.77-1.9-1.75-1.87-3.77-.82q-7.17,3.71-14.36,7.36a1.42,1.42,0,0,1-2-1.27,17.93,17.93,0,0,1,.46-3.18c.4-1.64.94-3.25,1.35-4.9.5-2-.45-2.88-2.54-2.34-.75.2-1.44.6-2.18.76a2.35,2.35,0,0,1-2.81-3,11.61,11.61,0,0,1,1-2.06A70.31,70.31,0,0,1,389.91,539a103.35,103.35,0,0,0,8.5-10.92,34.32,34.32,0,0,0,3.71-6.9c2.41-6.69,7.21-11.36,12.7-15.48,1.72-1.3,3.57-2.42,5.29-3.71,1.93-1.45,2.07-2.26.86-4.28-1.59-2.64-3.2-5.27-4.87-7.86a63.53,63.53,0,0,1-6.89-14.57c-1.5-4.53-3.42-8.93-4.7-13.51A279.47,279.47,0,0,1,397.1,427c-1.21-8.19-2.06-16.52-5.2-24.34a12.16,12.16,0,0,0-2.29-3.94A56,56,0,0,0,370.75,385c-5.64-2.44-11.1-5.34-16.48-8.33-7.67-4.26-15.17-8.82-22.79-13.17-4.57-2.61-9.4-3.79-14.63-2-3.06,1-6.21,1.81-9.22,3-7.19,2.79-14.59,4.9-21.92,7.25-5.3,1.71-10.83,2.34-16.22,3.63a98.84,98.84,0,0,1-21.92,2.87,15.17,15.17,0,0,0-4.94,1.06c-7.41,2.6-14.88,5-22.09,8.18a44.36,44.36,0,0,1-15.61,3.87c-3.06.16-6.11.66-9.17,1a3.05,3.05,0,0,1-3.46-1.69,3.83,3.83,0,0,1,.68-4.31,10,10,0,0,1,2.08-1.81c3.5-2.24,6.88-4.65,10.6-6.55,5.76-3,11.39-6.12,16.28-10.47a50.59,50.59,0,0,0,10.67-12.65c2.06-3.61,4.3-7.13,6.23-10.8A34.93,34.93,0,0,1,253,329.81,71.16,71.16,0,0,1,277,321.64a41.46,41.46,0,0,1,12,.05,32.47,32.47,0,0,0,4.59.47,175.57,175.57,0,0,1,22.58,1.09c2.45.28,4.89.61,7.34.85,6,.58,11.94,1.19,17.92,1.65a39,39,0,0,0,9.22-.23,27.52,27.52,0,0,1,9.19,0,22.52,22.52,0,0,0,3.68.19c3.8,0,7.65-.4,11.2,1.59a4.16,4.16,0,0,0,2.24.41c6.35-.46,12.56,1.11,18.88,1.15a88.76,88.76,0,0,0,11.05-.61,72.35,72.35,0,0,1,23.43,1,139.58,139.58,0,0,1,17.41,4.53,45.14,45.14,0,0,0,13.59,2.43,27.46,27.46,0,0,0,11.29-2,21.75,21.75,0,0,1,3.87-1.49c4.16-.81,5.87-4.09,7.71-7.29.6-1.05.3-2.08.13-3.14a10.8,10.8,0,0,1,.88-7.2Z" transform="translate(-50 -50)"/></svg>