<svg xmlns="http://www.w3.org/2000/svg" xmlns:xlink="http://www.w3.org/1999/xlink" id="Ebene_1" x="0" y="0" version="1.1" viewBox="0 0 1231.9 359.4" style="enable-background:new 0 0 1231.9 359.4" xml:space="preserve"><style type="text/css">.st0{fill:#fff100}</style><path d="M674.1,132v69.7c0,15-9.3,25.6-22,25.6h-6.2c-13,0-22-10.6-22-25.6V132h-24.5v74c0,26.7,19.2,45.9,46.1,45.9	h7.1c26.9,0,45.9-19.2,45.9-45.9v-74H674.1z M897.6,174.3l45.4-47.8h-34.2l-39.9,43V98.2h-24.2v151.7h24.2v-44.5l11.7-12.3	l39.9,56.9h30L897.6,174.3z M516,225.7h-29.3v-103H516c22.7,0,40.8,23.1,40.8,51.1C556.8,202.7,538.7,225.7,516,225.7z M516,98	h-53.6v152.1H516c35.9,0,65.3-33.9,65.3-76.3C581.3,132.4,552,98,516,98z M1020.6,225.7h-28.9v-103h28.9c22.9,0,40.8,23.1,40.8,51.1	C1061.4,202.7,1043.5,225.7,1020.6,225.7z M1020.6,98h-53.3v152.1h53.3c36.4,0,65.3-33.9,65.3-76.3C1085.9,132.4,1057,98,1020.6,98z M1166.8,225.7h-37.7v-42.1h37.7c11.2,0,20.9,9.7,20.9,20.9C1187.7,216.4,1178,225.7,1166.8,225.7z M1129.1,159.1v-36.4h30	c10.1,0,18.3,7.9,18.3,18.1c0,10.1-8.2,18.3-18.3,18.3H1129.1z M1192.6,167.2c5.5-7.3,9.3-16.5,9.3-26.5c0-23.4-19.6-42.8-42.8-42.8	h-54.2V250h61.9c25.1,0,45.2-20.5,45.2-45.6C1212,189.1,1204.5,175.6,1192.6,167.2z M767.5,154.7h6c14.5,0,26.5,10.6,26.5,23.8h24.7	c0-26.2-23.1-47.8-51.1-47.8h-6c-27.6,0-49.8,22.3-49.8,49.6v21.8c0,27.6,22.3,49.8,49.8,49.8h6c28.9,0,52.5-21.6,52.5-47.6h-24.7	c0,12.6-12.6,22.9-27.8,22.9h-6c-14.1,0-25.8-11.2-25.8-25.1v-21.8C741.8,166.1,753.4,154.7,767.5,154.7z" class="st0"/><path d="M179.7,346.9L179.7,346.9c-92.5,0-167.2-74.7-167.2-167.2l0,0c0-92.5,74.7-167.2,167.2-167.2l0,0	c92.5,0,167.2,74.7,167.2,167.2l0,0C346.9,272.2,272.2,346.9,179.7,346.9z" class="st0"/><path d="M269.1,154.8h-32.8v49.5h32.8c13.6,0,24.9-11.3,24.9-24.9C294,165.7,282.7,154.8,269.1,154.8"/><path d="M75.6,179.7c0,38.2,31.1,69.3,69.3,69.3s69.3-31.1,69.3-69.3s-31.1-69.3-69.3-69.3S75.6,141.5,75.6,179.7L75.6,179.7"/></svg>